<?xml version="1.0" encoding="UTF-8"?>
<!DOCTYPE svg PUBLIC "-//W3C//DTD SVG 1.1//EN" "http://www.w3.org/Graphics/SVG/1.1/DTD/svg11.dtd">
<!-- Creator: CorelDRAW 2018 (64-Bit) -->
<svg xmlns="http://www.w3.org/2000/svg" xml:space="preserve" width="409px" height="386px" version="1.1" style="shape-rendering:geometricPrecision; text-rendering:geometricPrecision; image-rendering:optimizeQuality; fill-rule:evenodd; clip-rule:evenodd"
viewBox="0 0 45.46 42.92"
 xmlns:xlink="http://www.w3.org/1999/xlink">
 <defs>
  <style type="text/css">
   <![CDATA[
    .fil4 {fill:#00BDFF;fill-rule:nonzero}
    .fil3 {fill:#00CDFF;fill-rule:nonzero}
    .fil9 {fill:#494949;fill-rule:nonzero}
    .fil2 {fill:#498A7B;fill-rule:nonzero}
    .fil11 {fill:#80460C;fill-rule:nonzero}
    .fil13 {fill:#999999;fill-rule:nonzero}
    .fil8 {fill:#A6A6A6;fill-rule:nonzero}
    .fil10 {fill:#B2B2B2;fill-rule:nonzero}
    .fil7 {fill:#B5681C;fill-rule:nonzero}
    .fil0 {fill:#EAEAEA;fill-rule:nonzero}
    .fil6 {fill:#F08519;fill-rule:nonzero}
    .fil1 {fill:#F1F1F1;fill-rule:nonzero}
    .fil12 {fill:#FB9025;fill-rule:nonzero}
    .fil5 {fill:white;fill-rule:nonzero}
   ]]>
  </style>
 </defs>
 <g id="Layer_x0020_1">
  <metadata id="CorelCorpID_0Corel-Layer"/>
  <g id="_1418715058032">
   <path class="fil0" d="M21.28 41.17c3.12,0.65 9.46,1.97 13.71,-1.18 7.69,-5.72 7.15,-25.18 -2.55,-33.4 -0.84,-0.71 -5.22,-4.27 -11.21,-3.88 -10.4,0.67 -19.61,12.85 -17.8,22.6 1.06,5.71 5.69,9.51 7.6,11.07 0.78,0.65 4.49,3.6 10.25,4.79z"/>
   <g>
    <g>
     <path class="fil1" d="M10.1 38c0,0.63 -2.26,1.14 -5.05,1.14 -2.79,0 -5.05,-0.51 -5.05,-1.14 0,-0.64 2.26,-1.15 5.05,-1.15 2.79,0 5.05,0.51 5.05,1.15z"/>
     <path class="fil1" d="M37.14 39.12c-1.05,0 -2.06,0.03 -2.97,0.08 0.64,-0.17 1,-0.38 1,-0.59 0,-0.7 -3.69,-1.26 -8.25,-1.26 -4.56,0 -8.25,0.56 -8.25,1.26 0,0.69 3.69,1.25 8.25,1.25 1.17,0 2.28,-0.04 3.29,-0.11 -0.5,0.16 -0.78,0.32 -0.78,0.5 0,0.63 3.45,1.14 7.71,1.14 4.26,0 7.71,-0.51 7.71,-1.14 0,-0.62 -3.45,-1.13 -7.71,-1.13z"/>
     <path class="fil1" d="M14.89 39.76c-0.15,0 -0.3,0 -0.45,0 0.29,-0.13 0.45,-0.28 0.45,-0.43 0,-0.68 -3.12,-1.22 -6.98,-1.22 -3.85,0 -6.97,0.54 -6.97,1.22 0,0.67 3.1,1.21 6.93,1.22 -0.7,0.23 -1.1,0.5 -1.1,0.79 0,0.87 3.64,1.58 8.12,1.58 4.49,0 8.12,-0.71 8.12,-1.58 0,-0.87 -3.63,-1.58 -8.12,-1.58z"/>
     <path class="fil1" d="M44.66 37.98c0,0.26 -0.75,0.46 -1.67,0.46 -0.92,0 -1.67,-0.2 -1.67,-0.46 0,-0.26 0.75,-0.47 1.67,-0.47 0.92,0 1.67,0.21 1.67,0.47z"/>
     <path class="fil1" d="M40.21 37.16c0,0.11 -0.33,0.19 -0.75,0.19 -0.41,0 -0.75,-0.08 -0.75,-0.19 0,-0.1 0.34,-0.18 0.75,-0.18 0.42,0 0.75,0.08 0.75,0.18z"/>
     <path class="fil1" d="M17.36 37.48c0,0.13 -0.37,0.24 -0.83,0.24 -0.45,0 -0.82,-0.11 -0.82,-0.24 0,-0.13 0.37,-0.24 0.82,-0.24 0.46,0 0.83,0.11 0.83,0.24z"/>
     <path class="fil1" d="M20.3 36.67c0,0.1 -0.23,0.18 -0.52,0.18 -0.29,0 -0.52,-0.08 -0.52,-0.18 0,-0.1 0.23,-0.18 0.52,-0.18 0.29,0 0.52,0.08 0.52,0.18z"/>
    </g>
   </g>
  </g>
  <g id="_1419448153184">
   <g>
    <path class="fil2" d="M8.39 2.75l-0.47 0.27c-0.1,0.06 -0.19,0.01 -0.19,-0.11l0 -1.11c0,-0.12 0.09,-0.27 0.19,-0.33l0.47 -0.28c0.11,-0.06 0.19,-0.01 0.19,0.12l0 1.11c0,0.12 -0.08,0.27 -0.19,0.33z"/>
    <path class="fil3" d="M13.66 3.03l0.26 -0.19 -1.1 -0.64 0 0c-1.16,-0.77 -2.82,-0.72 -4.66,0.34 -3.51,2.03 -6.36,6.95 -6.36,11.01 0,2.02 0.71,3.44 1.86,4.11l1.43 0.83 -0.02 -0.42c0.91,0.06 1.96,-0.21 3.09,-0.86 3.51,-2.02 6.35,-6.95 6.35,-11 0,-1.34 -0.31,-2.41 -0.85,-3.18z"/>
    <polygon class="fil3" points="7.73,2.8 9.16,3.64 9.16,2.79 7.73,1.8 "/>
    <path class="fil4" d="M9.82 3.59l-0.47 0.27c-0.11,0.06 -0.19,0.01 -0.19,-0.11l0 -1.11c0,-0.13 0.08,-0.28 0.19,-0.34l0.47 -0.27c0.11,-0.06 0.19,-0.01 0.19,0.11l0 1.11c0,0.13 -0.08,0.27 -0.19,0.34z"/>
    <path class="fil3" d="M9.42 0.02c-0.04,-0.03 -0.11,-0.03 -0.18,0.02l-2.22 1.27c-0.14,0.09 -0.26,0.29 -0.26,0.46l0 0.44c0,0.08 0.03,0.14 0.08,0.17l1.44 0.84 2.56 -2.37 -1.42 -0.83z"/>
    <path class="fil4" d="M10.67 1.92l-2.22 1.28c-0.14,0.08 -0.26,0.01 -0.26,-0.16l0 -0.43c0,-0.17 0.12,-0.37 0.26,-0.46l2.22 -1.28c0.14,-0.08 0.26,-0.01 0.26,0.16l0 0.43c0,0.17 -0.12,0.37 -0.26,0.46z"/>
    <path class="fil4" d="M15.94 7.05c0,4.05 -2.84,8.97 -6.35,11 -3.51,2.03 -6.36,0.38 -6.36,-3.67 0,-4.05 2.85,-8.98 6.36,-11 3.51,-2.03 6.35,-0.39 6.35,3.67z"/>
    <path class="fil3" d="M14.92 7.63c0,3.41 -2.39,7.54 -5.33,9.24 -1.61,0.93 -3.05,0.94 -4.03,0.21 0.95,0.45 2.21,0.33 3.6,-0.47 2.95,-1.7 5.34,-5.84 5.34,-9.24 0,-1.54 -0.5,-2.67 -1.31,-3.28 1.06,0.51 1.73,1.74 1.73,3.54z"/>
    <path class="fil5" d="M14.5 7.37c0,3.4 -2.39,7.54 -5.34,9.24 -1.39,0.8 -2.65,0.92 -3.6,0.47 -0.82,-0.61 -1.31,-1.74 -1.31,-3.29 0,-3.4 2.39,-7.54 5.34,-9.24 1.39,-0.8 2.65,-0.92 3.6,-0.46 0.81,0.61 1.31,1.74 1.31,3.28z"/>
    <path class="fil6" d="M11.28 9.88l0 -0.9c0,-0.25 0.01,-0.51 0.02,-0.78l-0.02 0.01c-0.11,0.33 -0.2,0.62 -0.32,0.95l-0.48 1.17 0 0.01 0.8 -0.46zm0 1.69l0 -0.97 -1.57 0.9 0 -0.62 1.34 -3.26 1.01 -0.59 0 2.4 0.43 -0.25 0 0.72 -0.43 0.24 0 0.98 -0.78 0.45z"/>
    <path class="fil6" d="M7.97 12.69l0 -0.01 0.33 -0.5c0.51,-0.82 0.94,-1.62 0.94,-2.3 0,-0.21 -0.04,-0.39 -0.11,-0.52l0.17 0 -0.36 -0.21 0 0.01c-0.21,-0.12 -0.53,-0.09 -0.94,0.15 -0.48,0.28 -0.89,0.71 -1.16,1.09l0.23 0.55c0.19,-0.27 0.46,-0.6 0.76,-0.78 0.41,-0.23 0.58,-0.07 0.58,0.27 -0.01,0.48 -0.38,1.15 -1.16,2.4l-0.45 0.74 0 0.58 2.51 -1.45 0 -0.79 -1.34 0.77z"/>
    <polygon class="fil6" points="8.33,12.9 8.5,12.39 9.31,11.92 9.67,12.13 "/>
    <path class="fil7" d="M7.16 14.37l0 -0.58 0.46 -0.74c0.77,-1.25 1.14,-1.92 1.15,-2.41 0,-0.33 -0.17,-0.49 -0.58,-0.26 -0.3,0.18 -0.57,0.51 -0.75,0.78l-0.24 -0.55c0.27,-0.39 0.68,-0.81 1.16,-1.09 0.8,-0.46 1.24,-0.18 1.24,0.57 0,0.68 -0.43,1.47 -0.94,2.3l-0.33 0.5 0 0.01 1.34 -0.77 0 0.79 -2.51 1.45z"/>
    <path class="fil7" d="M11.64 10.09l0 -0.91c0,-0.24 0.01,-0.5 0.03,-0.77l-0.02 0.01c-0.12,0.33 -0.21,0.62 -0.33,0.95l-0.47 1.16 0 0.02 0.79 -0.46zm0 1.69l0 -0.98 -1.57 0.91 0 -0.62 1.34 -3.26 1.01 -0.59 0 2.4 0.43 -0.25 0 0.72 -0.43 0.24 0 0.98 -0.78 0.45z"/>
    <polygon class="fil6" points="7.16,14.37 6.8,14.16 6.8,13.58 7.16,13.79 "/>
    <polygon class="fil6" points="10.07,11.71 9.71,11.5 9.71,10.88 10.07,11.09 "/>
    <polygon class="fil6" points="11.64,11.78 11.28,11.57 11.28,11.01 11.64,10.8 "/>
    <polygon class="fil6" points="12.42,9.64 12.42,9.22 12.49,9.18 12.85,9.39 "/>
    <polygon class="fil6" points="7.44,11.16 7.07,10.95 6.84,10.4 7.2,10.61 "/>
    <polygon class="fil6" points="11.41,7.83 11.05,7.62 12.06,7.03 12.42,7.24 "/>
    <polygon class="fil8" points="9.96,5.03 9.4,6.62 9.16,6.49 9.16,5.22 9.72,4.89 "/>
    <polygon class="fil8" points="9.41,16.63 9.16,16.5 9.16,15.23 9.72,14.9 9.96,15.04 "/>
    <polygon class="fil8" points="13.28,8.81 13.28,8.17 14.38,7.53 14.62,7.67 13.52,8.95 "/>
    <polygon class="fil8" points="4.55,13.86 4.55,13.22 5.65,12.58 5.89,12.72 4.79,14 "/>
    <polygon class="fil8" points="12.55,5.65 12.31,5.51 12.79,4.66 13.04,4.81 "/>
    <polygon class="fil8" points="6.44,9.23 6.69,8.81 6.2,8.53 5.95,8.95 "/>
    <polygon class="fil8" points="12.55,12.23 12.31,12.66 12.79,12.94 13.04,12.51 "/>
    <polygon class="fil8" points="6.35,15.81 6.6,15.96 6.11,16.8 5.87,16.66 "/>
    <polygon class="fil9" points="9.96,6.3 9.4,6.62 9.4,5.36 9.96,5.03 "/>
    <polygon class="fil9" points="9.96,16.31 9.41,16.63 9.41,15.37 9.96,15.04 "/>
    <polygon class="fil9" points="13.52,8.95 13.52,8.31 14.62,7.67 14.62,8.32 "/>
    <polygon class="fil9" points="4.79,14 4.79,13.36 5.89,12.72 5.89,13.37 "/>
    <polygon class="fil9" points="12.79,5.79 12.55,5.65 13.03,4.8 13.28,4.95 "/>
    <polygon class="fil9" points="6.68,9.37 6.93,8.95 6.44,8.66 6.19,9.09 "/>
    <polygon class="fil9" points="12.79,12.37 12.55,12.8 13.03,13.08 13.28,12.65 "/>
    <polygon class="fil9" points="6.59,15.95 6.84,16.1 6.35,16.94 6.11,16.8 "/>
   </g>
   <path class="fil10" d="M7.28 23.42l-0.82 -0.48c0,0 0,0 0.58,-0.33 0.49,-0.05 0.94,-0.05 1.35,-0.02l-0.26 0.73 -0.85 0.1z"/>
   <polygon class="fil7" points="32.32,34.57 29.13,34.08 29.13,36.86 32.32,37.36 "/>
   <path class="fil7" d="M24.68 35.98l0 0.01 0 -0.01zm-22.66 -12.83l0 2.82 0.01 0c0.04,1.4 1.89,2.19 1.89,2.19 0,0 2.13,0.97 4.33,0.64 0,0 1.37,-0.32 3.47,0.89 0,0 10.03,5.79 12.96,7.48l0 1.57 0.01 0c0,0.76 0.51,1.52 1.51,2.1 2.02,1.17 5.31,1.17 7.33,0 1.01,-0.58 1.51,-1.34 1.52,-2.1l0 0 0 -2.82 -1.34 2.02 -0.18 0.11c-1.89,1.1 -4.88,1.17 -6.92,0.22l-1.92 -2.35c0,-0.43 0.16,-0.86 0.49,-1.25 -2.03,-1.18 -13.46,-7.77 -13.46,-7.77 -2.1,-1.21 -3.47,-0.89 -3.47,-0.89 -2.2,0.34 -4.33,-0.64 -4.33,-0.64 0,0 -0.33,-0.14 -0.71,-0.41l-1.19 -1.81z"/>
   <polygon class="fil7" points="8.78,21.5 6.46,20.16 6.46,22.94 8.78,24.28 "/>
   <polygon class="fil11" points="28.28,37.36 29.13,36.86 29.13,34.08 26.8,35.43 27.65,37.27 "/>
   <polygon class="fil11" points="32.32,36.91 33.18,36.41 32.32,34.57 "/>
   <path class="fil12" d="M29.13 34.08l3.19 0.49 0.86 1.84 -2.34 1.35 -3.19 -0.49 -0.85 -1.84 2.33 -1.35zm-17.41 -7.18c0,0 11.43,6.59 13.46,7.77 -0.9,1.11 -0.57,2.47 1.02,3.38 2.02,1.17 5.31,1.17 7.33,0 2.03,-1.17 2.03,-3.06 0,-4.23 -1.54,-0.89 -3.81,-1.1 -5.7,-0.64 -1.9,-1.09 -13.49,-7.79 -13.49,-7.79 -2.1,-1.21 -1.54,-2 -1.54,-2 0.58,-1.28 -1.11,-2.5 -1.11,-2.5l0 -0.01c0,0 -1.69,-1.32 -4.65,-1.06 -0.58,0.34 -0.58,0.34 -0.58,0.34l2.32 1.34 -0.65 1.82 -3.15 0.37 -2.32 -1.34c0,0 0,0 -0.58,0.34 -0.46,1.7 1.84,2.68 1.84,2.68 0,0 2.13,0.98 4.33,0.64 0,0 1.37,-0.32 3.47,0.89z"/>
   <path class="fil13" d="M12.64 26.72l0.15 -0.11 0.02 -0.01c0.4,-0.23 1.05,-0.23 1.45,0l10.86 6.27 0.15 0.12c0.24,-0.23 0.19,-0.53 -0.15,-0.72l-10.86 -6.27c-0.4,-0.23 -1.05,-0.23 -1.45,0l-0.02 0.01c-0.34,0.19 -0.39,0.49 -0.15,0.71z"/>
   <path class="fil10" d="M12.64 26.72l0.15 0.12 10.86 6.27c0.4,0.23 1.05,0.23 1.45,0l0.02 -0.01 0.15 -0.11 -0.15 -0.12 -10.86 -6.27c-0.4,-0.23 -1.05,-0.23 -1.45,0l-0.02 0.01 -0.15 0.11z"/>
   <path class="fil7" d="M23.72 19.01c0.52,-0.51 0.76,-1.09 0.74,-1.66l0 0 0 2.09 -0.74 -0.43z"/>
   <polygon class="fil10" points="13.37,17.35 13.37,17.42 13.37,17.35 "/>
   <path class="fil7" d="M14.99 19.68c1.82,1.05 4.57,1.22 6.69,0.52l15 8.65c-0.88,1.01 -0.61,2.27 0.84,3.11 1.82,1.04 4.76,1.04 6.57,0 0.89,-0.51 1.34,-1.18 1.36,-1.84l0.01 0 0 2.77 -0.01 0c-0.02,0.67 -0.47,1.34 -1.36,1.85 -1.81,1.05 -4.75,1.05 -6.57,0 -0.91,-0.53 -1.36,-1.22 -1.35,-1.91l0 0 0 -1.48 -14.49 -8.37c-2.12,0.7 -4.87,0.54 -6.69,-0.51 -1.1,-0.64 -1.64,-1.48 -1.62,-2.31l0 0 0 -2.74c0,0.82 0.54,1.64 1.62,2.26z"/>
   <polygon class="fil7" points="38.31,28.61 41.72,28.09 41.72,30.87 38.69,31.34 38.31,31.11 "/>
   <polygon class="fil11" points="42.92,31.56 43.31,31.5 44.23,29.53 41.72,28.09 41.72,30.87 "/>
   <polygon class="fil11" points="38.31,31.11 38.31,28.61 37.39,30.59 "/>
   <polygon class="fil7" points="16,18.52 19.99,17.9 19.99,15.11 16,15.73 "/>
   <polygon class="fil11" points="19.99,17.9 21.89,19 22.91,16.8 19.99,15.11 "/>
   <polygon class="fil11" points="14.93,18.04 15.95,18.63 16,18.52 16,15.73 "/>
   <path class="fil12" d="M16 15.73l3.99 -0.62 2.92 1.69 -1.07 2.31 -3.99 0.61 -2.92 -1.68 1.07 -2.31zm22.31 12.88l3.41 -0.52 2.51 1.44 -0.92 1.97 -3.42 0.53 -2.5 -1.44 0.92 -1.98zm-23.32 -13.46c-2.16,1.26 -2.16,3.28 0,4.53 1.82,1.05 4.57,1.22 6.69,0.52l15 8.65c-0.88,1.01 -0.61,2.27 0.84,3.11 1.82,1.04 4.76,1.04 6.57,0 1.82,-1.05 1.82,-2.75 0,-3.8 -1.45,-0.84 -3.62,-1 -5.37,-0.49l-15 -8.66c1.22,-1.22 0.93,-2.81 -0.88,-3.86 -2.17,-1.25 -5.68,-1.25 -7.85,0z"/>
  </g>
 </g>
</svg>
