<?xml version="1.0" encoding="UTF-8"?>
<!DOCTYPE svg PUBLIC "-//W3C//DTD SVG 1.1//EN" "http://www.w3.org/Graphics/SVG/1.1/DTD/svg11.dtd">
<!-- Creator: CorelDRAW 2018 (64-Bit) -->
<svg xmlns="http://www.w3.org/2000/svg" xml:space="preserve" width="404px" height="373px" version="1.1" style="shape-rendering:geometricPrecision; text-rendering:geometricPrecision; image-rendering:optimizeQuality; fill-rule:evenodd; clip-rule:evenodd"
viewBox="0 0 18.82 17.37"
 xmlns:xlink="http://www.w3.org/1999/xlink">
 <defs>
  <style type="text/css">
   <![CDATA[
    .fil10 {fill:#EF4D57;fill-rule:nonzero}
    .fil5 {fill:#C7C8C9;fill-rule:nonzero}
    .fil9 {fill:#A03935;fill-rule:nonzero}
    .fil8 {fill:#BFC0C1;fill-rule:nonzero}
    .fil4 {fill:#96989B;fill-rule:nonzero}
    .fil14 {fill:#5C5B61;fill-rule:nonzero}
    .fil13 {fill:#2F2F30;fill-rule:nonzero}
    .fil7 {fill:#3C586F;fill-rule:nonzero}
    .fil6 {fill:#334557;fill-rule:nonzero}
    .fil3 {fill:#00BDFF;fill-rule:nonzero}
    .fil2 {fill:#0F92C2;fill-rule:nonzero}
    .fil11 {fill:#B5681C;fill-rule:nonzero}
    .fil0 {fill:#EAEAEA;fill-rule:nonzero}
    .fil1 {fill:#F1F1F1;fill-rule:nonzero}
    .fil12 {fill:#FB9025;fill-rule:nonzero}
   ]]>
  </style>
 </defs>
 <g id="Layer_x0020_1">
  <metadata id="CorelCorpID_0Corel-Layer"/>
  <g id="_1418755376448">
   <g>
    <path class="fil0" d="M8.93 16.15c1.31,0.28 3.97,0.83 5.75,-0.49 3.23,-2.4 3.01,-10.57 -1.07,-14.02 -0.35,-0.3 -2.19,-1.79 -4.7,-1.63 -4.36,0.29 -8.23,5.39 -7.47,9.49 0.44,2.4 2.39,3.99 3.19,4.64 0.33,0.27 1.88,1.51 4.3,2.01z"/>
    <g>
     <g>
      <path class="fil1" d="M4.24 14.82c0,0.27 -0.95,0.48 -2.12,0.48 -1.17,0 -2.12,-0.21 -2.12,-0.48 0,-0.26 0.95,-0.48 2.12,-0.48 1.17,0 2.12,0.22 2.12,0.48z"/>
      <path class="fil1" d="M15.59 15.29c-0.45,0 -0.87,0.01 -1.25,0.04 0.27,-0.08 0.42,-0.16 0.42,-0.25 0,-0.29 -1.55,-0.53 -3.46,-0.53 -1.91,0 -3.46,0.24 -3.46,0.53 0,0.29 1.55,0.52 3.46,0.52 0.49,0 0.96,-0.01 1.38,-0.04 -0.21,0.06 -0.33,0.13 -0.33,0.21 0,0.26 1.45,0.48 3.24,0.48 1.78,0 3.23,-0.22 3.23,-0.48 0,-0.26 -1.45,-0.48 -3.23,-0.48z"/>
      <path class="fil1" d="M6.25 15.56c-0.06,0 -0.13,0 -0.19,0 0.12,-0.05 0.19,-0.12 0.19,-0.18 0,-0.28 -1.31,-0.51 -2.93,-0.51 -1.62,0 -2.93,0.23 -2.93,0.51 0,0.28 1.3,0.51 2.91,0.51 -0.29,0.1 -0.46,0.21 -0.46,0.33 0,0.37 1.53,0.67 3.41,0.67 1.88,0 3.41,-0.3 3.41,-0.67 0,-0.36 -1.53,-0.66 -3.41,-0.66z"/>
      <path class="fil1" d="M18.74 14.81c0,0.11 -0.31,0.2 -0.7,0.2 -0.38,0 -0.7,-0.09 -0.7,-0.2 0,-0.1 0.32,-0.19 0.7,-0.19 0.39,0 0.7,0.09 0.7,0.19z"/>
      <path class="fil1" d="M16.88 14.47c0,0.05 -0.15,0.08 -0.32,0.08 -0.17,0 -0.31,-0.03 -0.31,-0.08 0,-0.04 0.14,-0.08 0.31,-0.08 0.17,0 0.32,0.04 0.32,0.08z"/>
      <path class="fil1" d="M7.28 14.61c0,0.05 -0.15,0.09 -0.34,0.09 -0.19,0 -0.35,-0.04 -0.35,-0.09 0,-0.06 0.16,-0.1 0.35,-0.1 0.19,0 0.34,0.04 0.34,0.1z"/>
      <path class="fil1" d="M8.52 14.27c0,0.04 -0.1,0.07 -0.22,0.07 -0.12,0 -0.22,-0.03 -0.22,-0.07 0,-0.05 0.1,-0.08 0.22,-0.08 0.12,0 0.22,0.03 0.22,0.08z"/>
     </g>
    </g>
   </g>
   <g>
    <path class="fil2" d="M11.48 5l0 0.27 -2.4 -0.96c-1.5,-0.6 -3.72,0.05 -4.12,1.2l-0.72 2.12 -0.57 0 0 1.72 0 0c-0.04,0.74 1.41,1.26 2.58,0.85l5.51 -1.97c0.96,-0.34 1.47,-0.93 1.48,-1.5l0 -1.73 -1.76 0z"/>
    <path class="fil3" d="M3.7 7.44c-0.28,0.83 1.29,1.46 2.55,1.02l5.51 -1.97c1.73,-0.61 2.01,-2.05 0.51,-2.64l-3.19 -1.29c-1.5,-0.59 -3.72,0.06 -4.12,1.21l-1.26 3.67z"/>
    <path class="fil4" d="M5.91 10.68l-0.21 0.01 -0.18 0.1c0,0 0.08,0.02 0.05,0.04 -0.14,0.06 -0.38,0.02 -0.63,-0.12 -0.43,-0.25 -0.78,-0.72 -0.78,-1.04 0,-0.12 0.05,-0.2 0.13,-0.25l-0.27 -0.1 -0.18 0.11c-0.01,0.04 0.05,0.27 0.05,0.33 0,0.44 0.39,0.87 0.92,1.18 0.23,0.12 0.49,0.23 0.72,0.16l0.02 0.05 0.18 -0.11 0 0c0.11,-0.07 0.18,-0.19 0.18,-0.36z"/>
    <path class="fil5" d="M5.73 10.78c0,0.45 -0.43,0.56 -0.97,0.25 -0.53,-0.31 -0.97,-0.92 -0.97,-1.37 0,-0.09 0.02,-0.17 0.05,-0.23l0.28 0.09c-0.09,0.05 -0.14,0.13 -0.14,0.25 0,0.32 0.36,0.79 0.78,1.04 0.37,0.21 0.68,0.19 0.76,-0.02l0.21 -0.01z"/>
    <path class="fil6" d="M3.99 9.62c-0.22,-0.09 -0.32,-0.04 -0.17,-0.17 0.08,-0.06 0.19,-0.1 0.31,-0.11l0 -0.37c-0.16,-0.07 -0.31,-0.11 -0.41,-0.03l-0.2 0.29 -0.18 0 0 0.39 0 0c0.01,0.16 0.14,0.32 0.38,0.41 0.4,0.16 0.95,0.11 1.23,-0.13 0.1,-0.08 0.15,-0.17 0.15,-0.26l0 -0.37c0.01,0.03 -0.08,0.14 -0.19,0.25 -0.12,0.11 -0.7,0.19 -0.92,0.1z"/>
    <path class="fil7" d="M4.71 9.2c0.02,0.07 -0.01,0.15 -0.08,0.21 -0.16,0.13 -0.46,0.16 -0.69,0.07 -0.22,-0.09 -0.27,-0.26 -0.12,-0.39 0.08,-0.06 0.19,-0.1 0.31,-0.12 -0.1,-0.06 -0.18,-0.12 -0.25,-0.19 -0.15,0.04 -0.28,0.1 -0.38,0.18 -0.28,0.23 -0.18,0.55 0.22,0.71 0.4,0.16 0.95,0.1 1.23,-0.13 0.1,-0.08 0.15,-0.18 0.15,-0.27 -0.13,-0.01 -0.27,-0.04 -0.39,-0.07z"/>
    <path class="fil2" d="M9.16 5.9c0.9,0.36 2.12,0.23 2.74,-0.28 0.62,-0.52 0.4,-1.23 -0.49,-1.58 -0.9,-0.36 -2.12,-0.23 -2.74,0.28 -0.62,0.52 -0.4,1.22 0.49,1.58z"/>
    <path class="fil4" d="M12.03 4.53l-0.18 0c-0.11,-0.13 -0.28,-0.24 -0.49,-0.32 -0.7,-0.28 -1.67,-0.18 -2.16,0.23 -0.04,0.03 -0.07,0.06 -0.1,0.09l-0.18 0 0 0.42 0 0c0,0.28 0.23,0.56 0.67,0.74 0.7,0.28 1.67,0.18 2.17,-0.23 0.18,-0.15 0.27,-0.33 0.27,-0.51l0 0 0 -0.42z"/>
    <path class="fil8" d="M9.59 5.27c0.7,0.28 1.67,0.18 2.17,-0.23 0.49,-0.41 0.31,-0.97 -0.4,-1.25 -0.7,-0.29 -1.67,-0.18 -2.16,0.22 -0.5,0.41 -0.32,0.97 0.39,1.26z"/>
    <path class="fil6" d="M5.2 7.07c0.22,0.09 0.52,0.06 0.68,-0.07 0.15,-0.13 0.1,-0.31 -0.12,-0.4 -0.23,-0.09 -0.53,-0.05 -0.69,0.07 -0.15,0.13 -0.1,0.31 0.13,0.4z"/>
    <path class="fil9" d="M5.86 6.71l-0.04 0c-0.03,-0.03 -0.07,-0.06 -0.12,-0.08 -0.18,-0.07 -0.42,-0.04 -0.54,0.06l-0.03 0.02 -0.04 0 0 0.11 0 0c0,0.07 0.06,0.14 0.16,0.18 0.18,0.07 0.42,0.05 0.54,-0.05 0.05,-0.04 0.07,-0.09 0.07,-0.13l0 0 0 -0.11z"/>
    <path class="fil10" d="M5.25 6.9c0.18,0.07 0.42,0.04 0.54,-0.06 0.13,-0.1 0.08,-0.24 -0.09,-0.31 -0.18,-0.07 -0.42,-0.05 -0.54,0.05 -0.13,0.11 -0.08,0.25 0.09,0.32z"/>
    <path class="fil11" d="M11.05 11.67l0 -0.69 -0.63 0 -1.38 -1.18c-0.25,-0.21 -0.73,-0.26 -1.09,-0.12l-1.73 0.67 -0.18 -0.36 -1.4 0.54 0 0.68c0,0.08 0.04,0.17 0.13,0.25l1.89 1.61c0.24,0.21 0.73,0.26 1.08,0.12l2.97 -1.15c0.22,-0.09 0.34,-0.22 0.34,-0.36l0 0 0 -0.01z"/>
    <polygon class="fil4" points="14.03,15.68 13.8,15.77 13.41,15.44 13.65,15.35 13.65,14.98 13.02,15.1 12.83,14.94 13.06,14.85 13.06,14.48 12.47,14.63 12.28,14.46 12.51,14.37 12.51,14.01 12.19,14.1 10.34,12.51 11.11,12.21 11.11,11.85 7.74,12.68 7.74,13.04 8.13,13.37 8.76,13.13 13.49,17.18 14.44,17.37 15.07,16.56 15.07,16.2 "/>
    <path class="fil12" d="M5.38 10.28c0.22,-0.08 0.52,-0.05 0.68,0.08 0.15,0.13 0.09,0.3 -0.14,0.39 -0.22,0.09 -0.52,0.05 -0.67,-0.08 -0.15,-0.13 -0.09,-0.3 0.13,-0.39zm-0.61 0.49l1.89 1.61c0.24,0.21 0.73,0.26 1.08,0.12l2.97 -1.15c0.36,-0.14 0.45,-0.42 0.21,-0.63l-1.88 -1.61c-0.25,-0.21 -0.73,-0.26 -1.09,-0.12l-2.97 1.15c-0.35,0.14 -0.45,0.42 -0.21,0.63z"/>
    <path class="fil13" d="M9.77 11.21c-0.01,-0.03 -0.03,-0.06 -0.06,-0.08l-0.67 -0.58c-0.12,-0.1 -0.36,-0.13 -0.53,-0.06l-1.46 0.57c-0.08,0.03 -0.14,0.08 -0.16,0.14 -0.03,-0.09 0.03,-0.18 0.16,-0.23l1.46 -0.56c0.17,-0.07 0.41,-0.04 0.53,0.06l0.67 0.57c0.06,0.05 0.08,0.11 0.06,0.17z"/>
    <path class="fil14" d="M9.77 11.21c-0.02,0.05 -0.08,0.1 -0.16,0.14l-1.46 0.56c-0.17,0.07 -0.41,0.05 -0.53,-0.06l-0.67 -0.57c-0.03,-0.03 -0.05,-0.05 -0.06,-0.08 0.02,-0.06 0.08,-0.11 0.16,-0.14l1.46 -0.57c0.17,-0.07 0.41,-0.04 0.53,0.06l0.67 0.58c0.03,0.02 0.05,0.05 0.06,0.08z"/>
    <polygon class="fil8" points="14.03,15.31 13.8,15.4 13.41,15.07 13.65,14.98 13.45,14.81 13.22,14.9 12.83,14.57 13.06,14.48 12.89,14.34 12.66,14.43 12.28,14.1 12.51,14.01 10.34,12.15 11.11,11.85 10.73,11.51 7.74,12.68 8.13,13.01 8.76,12.76 13.49,16.81 14.44,17 15.07,16.2 "/>
    <polygon class="fil4" points="14.01,16.51 9.36,12.53 9.15,12.61 13.8,16.59 "/>
    <path class="fil4" d="M4.94 9.31c-0.32,-0.18 -0.61,-0.22 -0.79,-0.12l0 0 -0.18 0.11 0.09 0.09 0.06 -0.03 0.17 0.06c0.14,-0.07 0.31,0 0.57,0.16 0.28,0.23 0.61,0.63 0.73,1.03 0.01,0.05 0.09,0.18 0.15,0.18 0.11,0 0.17,-0.04 0.17,-0.04l0.01 -0.06c0,-0.44 -0.45,-1.07 -0.98,-1.38z"/>
    <path class="fil5" d="M5.52 10.79c0.02,-0.04 0.02,-0.07 0.02,-0.12 0,-0.32 -0.36,-0.79 -0.78,-1.04 -0.26,-0.15 -0.5,-0.18 -0.64,-0.11l-0.28 -0.09c0.14,-0.24 0.5,-0.26 0.92,-0.01 0.54,0.3 0.98,0.93 0.98,1.37 0,0 -0.01,0.01 -0.1,0.01 -0.09,0 -0.12,-0.01 -0.12,-0.01z"/>
   </g>
  </g>
 </g>
</svg>
