<?xml version="1.0" encoding="UTF-8"?>
<!DOCTYPE svg PUBLIC "-//W3C//DTD SVG 1.1//EN" "http://www.w3.org/Graphics/SVG/1.1/DTD/svg11.dtd">
<!-- Creator: CorelDRAW 2018 (64-Bit) -->
<svg xmlns="http://www.w3.org/2000/svg" xml:space="preserve" width="510px" height="388px" version="1.1" style="shape-rendering:geometricPrecision; text-rendering:geometricPrecision; image-rendering:optimizeQuality; fill-rule:evenodd; clip-rule:evenodd"
viewBox="0 0 46.03 35.01"
 xmlns:xlink="http://www.w3.org/1999/xlink">
 <defs>
  <style type="text/css">
   <![CDATA[
    .fil10 {fill:#00CDFF}
    .fil6 {fill:#00BDFF;fill-rule:nonzero}
    .fil7 {fill:#00CDFF;fill-rule:nonzero}
    .fil9 {fill:#0F92C2;fill-rule:nonzero}
    .fil8 {fill:#808285;fill-rule:nonzero}
    .fil3 {fill:#B5681C;fill-rule:nonzero}
    .fil0 {fill:#EAEAEA;fill-rule:nonzero}
    .fil4 {fill:#F08519;fill-rule:nonzero}
    .fil1 {fill:#F1F1F1;fill-rule:nonzero}
    .fil5 {fill:white;fill-rule:nonzero}
    .fil2 {fill:#B5681C;fill-rule:nonzero;fill-opacity:0.250980}
   ]]>
  </style>
 </defs>
 <g id="Layer_x0020_1">
  <metadata id="CorelCorpID_0Corel-Layer"/>
  <g id="_1418755388960">
   <path class="fil0" d="M20.56 33.49c2.73,0.57 8.24,1.71 11.93,-1.03 6.7,-4.98 6.23,-21.9 -2.22,-29.05 -0.73,-0.62 -4.53,-3.72 -9.75,-3.38 -9.04,0.58 -17.06,11.18 -15.49,19.66 0.93,4.97 4.96,8.27 6.62,9.63 0.68,0.56 3.91,3.13 8.91,4.17z"/>
   <g>
    <g>
     <path class="fil1" d="M10.84 30.73c0,0.55 -1.97,1 -4.39,1 -2.43,0 -4.4,-0.45 -4.4,-1 0,-0.55 1.97,-1 4.4,-1 2.42,0 4.39,0.45 4.39,1z"/>
     <path class="fil1" d="M34.37 31.7c-0.92,0 -1.79,0.03 -2.59,0.08 0.56,-0.16 0.87,-0.33 0.87,-0.52 0,-0.6 -3.21,-1.09 -7.17,-1.09 -3.97,0 -7.18,0.49 -7.18,1.09 0,0.6 3.21,1.09 7.18,1.09 1.01,0 1.98,-0.03 2.86,-0.09 -0.44,0.13 -0.68,0.28 -0.68,0.43 0,0.55 3,0.99 6.71,0.99 3.7,0 6.7,-0.44 6.7,-0.99 0,-0.54 -3,-0.99 -6.7,-0.99z"/>
     <path class="fil1" d="M15.01 32.26c-0.13,0 -0.27,0 -0.4,0 0.26,-0.11 0.4,-0.24 0.4,-0.37 0,-0.59 -2.72,-1.06 -6.07,-1.06 -3.36,0 -6.07,0.47 -6.07,1.06 0,0.58 2.69,1.05 6.03,1.06 -0.61,0.2 -0.95,0.44 -0.95,0.69 0,0.76 3.16,1.37 7.06,1.37 3.9,0 7.06,-0.61 7.06,-1.37 0,-0.76 -3.16,-1.38 -7.06,-1.38z"/>
     <path class="fil1" d="M40.91 30.71c0,0.23 -0.65,0.41 -1.45,0.41 -0.8,0 -1.45,-0.18 -1.45,-0.41 0,-0.22 0.65,-0.4 1.45,-0.4 0.8,0 1.45,0.18 1.45,0.4z"/>
     <path class="fil1" d="M37.04 30c0,0.1 -0.29,0.17 -0.65,0.17 -0.36,0 -0.65,-0.07 -0.65,-0.17 0,-0.09 0.29,-0.16 0.65,-0.16 0.36,0 0.65,0.07 0.65,0.16z"/>
     <path class="fil1" d="M17.15 30.28c0,0.11 -0.32,0.21 -0.71,0.21 -0.4,0 -0.72,-0.1 -0.72,-0.21 0,-0.12 0.32,-0.21 0.72,-0.21 0.39,0 0.71,0.09 0.71,0.21z"/>
     <path class="fil1" d="M19.71 29.58c0,0.08 -0.2,0.15 -0.45,0.15 -0.25,0 -0.45,-0.07 -0.45,-0.15 0,-0.09 0.2,-0.16 0.45,-0.16 0.25,0 0.45,0.07 0.45,0.16z"/>
    </g>
   </g>
  </g>
  <g id="_1418575478720">
   <path class="fil2" d="M45.91 22.11l-19.17 11.15c-0.16,0.09 -0.42,0.09 -0.58,0l-26.04 -15.03c-0.08,-0.05 -0.12,-0.11 -0.12,-0.17 0,0.32 0,0.65 0,0.97 0,0.06 0.04,0.12 0.12,0.17l26.04 15.03c0.16,0.09 0.42,0.09 0.57,0l19.18 -11.14c0.08,-0.05 0.12,-0.1 0.12,-0.16 0,-0.33 0,-0.65 0,-0.98 0,0.06 -0.04,0.12 -0.12,0.16z"/>
   <path class="fil3" d="M0 17.54l0 -0.02 0 0.22 0 0.01 0 0 0 0.75c0,0.06 0.04,0.12 0.12,0.17l26.04 15.03c0.16,0.09 0.42,0.09 0.57,0l19.18 -11.14c0.08,-0.05 0.12,-0.11 0.12,-0.17l0 -0.88 0 0 0 0 0 0 0 0 0 0 0 -0.01 0 0 0 0 0 0 0 0 0 -0.01 0 0 0 0 0 0 0 0 0 -0.01 0 0 0 0 0 0 0 -0.01 0 0 0 -0.01 0 0 0 0 0 -0.01 0 -0.03 0 0 0 -0.83c-0.36,0.73 -12.21,4.17 -13.21,4.5 0,0 -9.77,-2.4 -29.32,-7.2 0.11,0.06 -1.06,-0.63 -3.5,-1.19 0.01,-0.07 0.01,0.5 0,0.84z"/>
   <path class="fil4" d="M45.91 20.43c0.16,0.09 0.16,0.24 0,0.33l-19.17 11.14c-0.16,0.09 -0.42,0.09 -0.58,0l-26.04 -15.03c-0.16,-0.09 -0.16,-0.24 0,-0.34l19.17 -11.14c0.16,-0.09 0.42,-0.09 0.58,0l26.04 15.04z"/>
   <polygon class="fil5" points="19,6.98 42.59,20.59 26.66,29.84 3.08,16.23 "/>
   <polygon class="fil3" points="26.66,29.84 3.08,16.23 3.08,16.55 26.66,30.17 42.59,20.92 42.59,20.59 "/>
   <path class="fil6" d="M16.83 7.95c-0.07,-0.27 -0.26,-0.52 -0.46,-0.63l-0.68 -0.39 -9.84 5.71 0.68 0.4c0.06,0.03 0.12,0.08 0.18,0.14 0.2,0.2 0.31,0.51 0.31,0.71l0 0.52c0,0.03 -0.01,0.05 -0.03,0.06l9.84 -5.72c0.02,-0.01 0.03,-0.03 0.03,-0.06l0 -0.52c0,-0.07 -0.01,-0.15 -0.03,-0.22z"/>
   <g>
    <path class="fil7" d="M6.53 13.04c0.27,0.15 0.49,0.53 0.49,0.85l0 0.52c0,0.06 -0.04,0.08 -0.1,0.05 -0.05,-0.03 -0.1,-0.11 -0.1,-0.17l0.01 -0.52c0,-0.18 -0.14,-0.41 -0.3,-0.5l-0.68 -0.4 0 -0.23 0.68 0.4z"/>
   </g>
   <g>
    <polygon class="fil8" points="26.64,14.37 19.95,18.25 19.14,17.79 25.83,13.9 "/>
   </g>
   <g>
    <polygon class="fil8" points="30.22,14.3 21.68,19.26 20.87,18.79 29.41,13.83 "/>
   </g>
   <g>
    <polygon class="fil8" points="34.84,17.61 26.29,22.58 25.47,22.11 34.03,17.14 "/>
   </g>
   <g>
    <polygon class="fil8" points="35.19,19.41 28.02,23.58 27.21,23.11 34.38,18.94 "/>
   </g>
   <g>
    <polygon class="fil8" points="10.71,15.21 13.67,16.92 10.73,18.63 7.77,16.92 "/>
   </g>
   <g>
    <polygon class="fil5" points="13.09,16.92 10.72,18.3 8.34,16.92 10.71,15.54 "/>
   </g>
   <g>
    <polygon class="fil8" points="22.07,9.79 13.52,14.76 12.71,14.29 21.26,9.32 "/>
   </g>
   <g>
    <polygon class="fil8" points="22.42,11.59 15.25,15.76 14.44,15.29 21.61,11.12 "/>
   </g>
   <path class="fil9" d="M8.12 16.46c0.74,-0.25 1.48,-0.4 2.28,-0.27 0.03,-1.2 0.04,-2.28 0.43,-3.49 -0.08,1.54 0.1,3.05 0.51,4.46 -0.93,-0.45 -2.07,-0.71 -3.22,-0.7z"/>
   <g>
    <path class="fil8" d="M16.85 18.83l2.96 1.71 -2.94 1.71 -2.96 -1.71 2.94 -1.71zm0.01 3.09l0 0 2.37 -1.38 -2.38 -1.38 -2.37 1.38 2.38 1.38z"/>
   </g>
   <g>
    <polygon class="fil8" points="23.46,22.88 26.42,24.59 23.48,26.3 20.52,24.59 "/>
   </g>
   <g>
    <polygon class="fil5" points="19.23,20.54 16.86,21.92 14.48,20.54 16.85,19.16 "/>
   </g>
   <g>
    <polygon class="fil5" points="25.85,24.59 23.48,25.97 21.1,24.59 23.47,23.22 "/>
   </g>
   <path class="fil9" d="M14.8 20.44c0.73,-0.26 1.48,-0.41 2.28,-0.27 0.02,-1.2 0.04,-2.28 0.42,-3.5 -0.07,1.55 0.1,3.05 0.51,4.47 -0.93,-0.45 -2.07,-0.72 -3.21,-0.7z"/>
   <path class="fil9" d="M21.37 24.53c0.73,-0.25 1.48,-0.4 2.28,-0.27 0.02,-1.2 0.04,-2.28 0.42,-3.49 -0.07,1.54 0.1,3.05 0.51,4.46 -0.93,-0.45 -2.07,-0.71 -3.21,-0.7z"/>
   <path class="fil10" d="M7.02 13.94c-0.02,-0.4 -0.18,-0.7 -0.49,-0.9 6.56,-3.82 9.84,-5.72 9.84,-5.72 0.31,0.22 0.47,0.5 0.49,0.85 -6.56,3.85 -9.84,5.77 -9.84,5.77z"/>
  </g>
 </g>
</svg>
