<?xml version="1.0" encoding="UTF-8"?>
<!DOCTYPE svg PUBLIC "-//W3C//DTD SVG 1.1//EN" "http://www.w3.org/Graphics/SVG/1.1/DTD/svg11.dtd">
<!-- Creator: CorelDRAW 2018 (64-Bit) -->
<svg xmlns="http://www.w3.org/2000/svg" xml:space="preserve" width="413px" height="362px" version="1.1" style="shape-rendering:geometricPrecision; text-rendering:geometricPrecision; image-rendering:optimizeQuality; fill-rule:evenodd; clip-rule:evenodd"
viewBox="0 0 139.91 122.86"
 xmlns:xlink="http://www.w3.org/1999/xlink">
 <defs>
  <style type="text/css">
   <![CDATA[
    .fil2 {fill:#B5681C;fill-rule:nonzero}
    .fil0 {fill:#EAEAEA;fill-rule:nonzero}
    .fil1 {fill:#F1F1F1;fill-rule:nonzero}
    .fil3 {fill:#FB9025;fill-rule:nonzero}
    .fil4 {fill:#FCA844;fill-rule:nonzero}
   ]]>
  </style>
 </defs>
 <g id="Layer_x0020_1">
  <metadata id="CorelCorpID_0Corel-Layer"/>
  <g id="_1418370265024">
   <path class="fil0" d="M67.94 117.51c9.55,1.99 28.9,6.01 41.85,-3.62 23.5,-17.46 21.85,-76.85 -7.78,-101.94 -2.56,-2.17 -15.93,-13.05 -34.22,-11.86 -31.74,2.06 -59.87,39.23 -54.34,69.01 3.23,17.44 17.38,29.02 23.2,33.79 2.4,1.97 13.71,10.97 31.29,14.62z"/>
   <g>
    <g>
     <path class="fil1" d="M33.82 107.82c0,1.94 -6.9,3.5 -15.42,3.5 -8.51,0 -15.42,-1.56 -15.42,-3.5 0,-1.93 6.91,-3.5 15.42,-3.5 8.52,0 15.42,1.57 15.42,3.5z"/>
     <path class="fil1" d="M116.36 111.24c-3.21,0 -6.27,0.1 -9.06,0.27 1.95,-0.55 3.05,-1.17 3.05,-1.83 0,-2.11 -11.27,-3.82 -25.18,-3.82 -13.91,0 -25.19,1.71 -25.19,3.82 0,2.11 11.28,3.82 25.19,3.82 3.57,0 6.96,-0.11 10.04,-0.31 -1.53,0.46 -2.39,0.97 -2.39,1.52 0,1.92 10.54,3.47 23.54,3.47 13.01,0 23.55,-1.55 23.55,-3.47 0,-1.92 -10.54,-3.47 -23.55,-3.47z"/>
     <path class="fil1" d="M48.45 113.2c-0.47,0 -0.93,0 -1.39,0.01 0.89,-0.42 1.39,-0.86 1.39,-1.33 0,-2.05 -9.54,-3.72 -21.31,-3.72 -11.76,0 -21.3,1.67 -21.3,3.72 0,2.05 9.46,3.71 21.16,3.73 -2.12,0.71 -3.34,1.53 -3.34,2.42 0,2.66 11.1,4.83 24.79,4.83 13.68,0 24.78,-2.17 24.78,-4.83 0,-2.67 -11.1,-4.83 -24.78,-4.83z"/>
     <path class="fil1" d="M139.31 107.76c0,0.79 -2.27,1.43 -5.08,1.43 -2.82,0 -5.09,-0.64 -5.09,-1.43 0,-0.78 2.27,-1.42 5.09,-1.42 2.81,0 5.08,0.64 5.08,1.42z"/>
     <path class="fil1" d="M125.74 105.28c0,0.32 -1.02,0.58 -2.28,0.58 -1.26,0 -2.29,-0.26 -2.29,-0.58 0,-0.32 1.03,-0.58 2.29,-0.58 1.26,0 2.28,0.26 2.28,0.58z"/>
     <path class="fil1" d="M55.97 106.24c0,0.41 -1.12,0.73 -2.51,0.73 -1.39,0 -2.52,-0.32 -2.52,-0.73 0,-0.4 1.13,-0.72 2.52,-0.72 1.39,0 2.51,0.32 2.51,0.72z"/>
     <path class="fil1" d="M64.96 103.77c0,0.31 -0.71,0.55 -1.59,0.55 -0.87,0 -1.58,-0.24 -1.58,-0.55 0,-0.3 0.71,-0.54 1.58,-0.54 0.88,0 1.59,0.24 1.59,0.54z"/>
    </g>
   </g>
  </g>
  <g id="_1419347871936">
   <path class="fil2" d="M49.33 52.2c-4.84,4.34 -4.88,10.11 -0.06,14.5 0.85,0.78 1.83,1.5 2.82,2.13 9.51,-5.75 25.34,-5.71 34.74,0.18 1.02,-0.62 2.05,-1.3 2.92,-2.08 4.8,-4.34 4.87,-10.11 0.05,-14.46 -9.49,-8.74 -30.87,-8.85 -40.47,-0.27z"/>
   <path class="fil3" d="M89.75 66.93c-0.87,0.78 -1.9,1.46 -2.92,2.08 -9.43,5.76 -25.35,5.66 -34.74,-0.18 -0.99,-0.63 -1.97,-1.35 -2.82,-2.13 -4.82,-4.39 -4.78,-10.16 0.06,-14.5 9.6,-8.58 30.98,-8.47 40.47,0.27 4.82,4.35 4.75,10.12 -0.05,14.46zm26.78 -13.3c-1.03,-2.72 -2.8,-5.31 -5.21,-7.75l-0.9 -0.84 15.89 -9.1 -15.15 -8.88 -15.88 9.08c-4.63,-1.72 -9.62,-2.92 -14.82,-3.63l0.09 -12.93 -21.61 -0.11 -0.07 12.92c-5.17,0.66 -10.16,1.83 -14.79,3.43l-15.82 -9.19 -15.29 8.74 15.77 9.2 -0.81 0.85c-2.47,2.43 -4.26,5.02 -5.39,7.67l-7.96 -0.05 -14.44 -0.09 -0.03 12.49 22.41 0.1c0.4,1.04 0.97,2.09 1.59,3.11 1.16,1.88 2.63,3.7 4.49,5.47l-15.91 9.08 1.72 0.97 13.23 7.77 0.29 0.12 15.86 -9.05c1.43,0.55 2.95,0.98 4.44,1.43 3.31,0.95 6.82,1.69 10.38,2.19l-0.04 3.78 -0.07 9.15 21.63 0.11 0 -9.14 0.06 -3.78c3.58,-0.46 7.03,-1.15 10.39,-2.06 1.54,-0.45 2.96,-0.91 4.44,-1.37l15.72 9.21 0.36 -0.15 13.28 -7.59 1.71 -1.01 -15.82 -9.21c1.92,-1.73 3.4,-3.53 4.53,-5.43 0.7,-1.02 1.23,-2.05 1.64,-3.09l22.47 0.11 0.06 -12.46 -14.39 -0.06 -8.05 -0.01z"/>
   <polygon class="fil4" points="12.59,101.89 27.82,110.76 27.93,92.06 12.69,83.2 "/>
   <polygon class="fil2" points="27.82,110.76 43.71,101.68 43.79,83.01 27.93,92.06 "/>
   <polygon class="fil4" points="58.42,118.25 80,118.37 80.13,99.67 58.5,99.56 "/>
   <path class="fil4" d="M43.71 101.68c7.54,2.79 14.79,3.63 14.79,3.63l0.11 -18.68c0,0 -10.35,-1.71 -14.82,-3.62l-0.08 18.67z"/>
   <polygon class="fil2" points="0,84.11 12.69,84.17 12.69,83.2 22.44,77.62 22.52,65.54 0.11,65.44 "/>
   <path class="fil4" d="M22.44 77.62l6.16 -3.5c-4.19,-3.63 -6.08,-8.58 -6.08,-8.58l-0.08 12.08z"/>
   <polygon class="fil4" points="94.92,101.95 110.72,111.2 110.74,92.53 95.02,83.32 "/>
   <polygon class="fil2" points="110.72,111.2 126.06,102.48 126.09,83.78 110.74,92.53 "/>
   <path class="fil2" d="M80.19 86.75c0,0 -0.06,17.56 -0.13,18.68 7.65,-0.76 14.86,-3.48 14.86,-3.48 0,0 0.18,-19.92 0.1,-18.63 -6.32,2.32 -14.83,3.43 -14.83,3.43z"/>
   <polygon class="fil4" points="116.39,78.11 126.09,83.78 126.09,84.8 138.78,84.81 138.91,66.16 116.44,66.05 "/>
   <path class="fil2" d="M110.27 74.57l6.12 3.54 0.05 -12.06c-2.39,5.27 -6.17,8.52 -6.17,8.52z"/>
   <path class="fil2" d="M116.53 53.63l9.71 0.07 0.07 -17.76 -15.89 9.1c4.6,4.28 6.11,8.59 6.11,8.59z"/>
   <path class="fil2" d="M12.85 53.04l9.69 0.05c0,0 1.57,-4.14 6.2,-8.52l-15.77 -9.2 -0.12 17.67z"/>
  </g>
 </g>
</svg>
