<?xml version="1.0" encoding="UTF-8"?>
<!DOCTYPE svg PUBLIC "-//W3C//DTD SVG 1.1//EN" "http://www.w3.org/Graphics/SVG/1.1/DTD/svg11.dtd">
<!-- Creator: CorelDRAW 2018 (64-Bit) -->
<svg xmlns="http://www.w3.org/2000/svg" xml:space="preserve" width="404px" height="362px" version="1.1" style="shape-rendering:geometricPrecision; text-rendering:geometricPrecision; image-rendering:optimizeQuality; fill-rule:evenodd; clip-rule:evenodd"
viewBox="0 0 416.71 373.9"
 xmlns:xlink="http://www.w3.org/1999/xlink">
 <defs>
  <style type="text/css">
   <![CDATA[
    .fil3 {fill:#00BDFF;fill-rule:nonzero}
    .fil2 {fill:#00CDFF;fill-rule:nonzero}
    .fil4 {fill:#0F92C2;fill-rule:nonzero}
    .fil5 {fill:#B5681C;fill-rule:nonzero}
    .fil0 {fill:#EAEAEA;fill-rule:nonzero}
    .fil1 {fill:#F1F1F1;fill-rule:nonzero}
    .fil6 {fill:#FB9025;fill-rule:nonzero}
   ]]>
  </style>
 </defs>
 <g id="Layer_x0020_1">
  <metadata id="CorelCorpID_0Corel-Layer"/>
  <g id="_1418756470336">
   <path class="fil0" d="M197.68 357.63c29.07,6.04 87.97,18.28 127.38,-11 71.52,-53.15 66.48,-233.91 -23.69,-310.25 -7.8,-6.6 -48.46,-39.72 -104.15,-36.1 -96.58,6.26 -182.19,119.38 -165.37,210.03 9.84,53.05 52.89,88.31 70.61,102.83 7.3,5.98 41.73,33.38 95.22,44.49z"/>
   <g>
    <g>
     <path class="fil1" d="M93.84 328.15c0,5.88 -21,10.65 -46.92,10.65 -25.91,0 -46.92,-4.77 -46.92,-10.65 0,-5.89 21.01,-10.66 46.92,-10.66 25.92,0 46.92,4.77 46.92,10.66z"/>
     <path class="fil1" d="M345.06 338.55c-9.77,0 -19.09,0.29 -27.58,0.81 5.93,-1.65 9.29,-3.54 9.29,-5.56 0,-6.42 -34.31,-11.63 -76.65,-11.63 -42.33,0 -76.65,5.21 -76.65,11.63 0,6.43 34.32,11.64 76.65,11.64 10.87,0 21.2,-0.35 30.56,-0.97 -4.65,1.4 -7.26,2.98 -7.26,4.64 0,5.83 32.07,10.56 71.64,10.56 39.57,0 71.65,-4.73 71.65,-10.56 0,-5.83 -32.08,-10.56 -71.65,-10.56z"/>
     <path class="fil1" d="M138.36 344.5c-1.42,0 -2.82,0.01 -4.22,0.03 2.72,-1.25 4.22,-2.61 4.22,-4.03 0,-6.25 -29.03,-11.32 -64.83,-11.32 -35.81,0 -64.84,5.07 -64.84,11.32 0,6.24 28.8,11.29 64.41,11.33 -6.46,2.17 -10.18,4.68 -10.18,7.37 0,8.12 33.78,14.7 75.44,14.7 41.66,0 75.44,-6.58 75.44,-14.7 0,-8.12 -33.78,-14.7 -75.44,-14.7z"/>
     <path class="fil1" d="M414.91 327.97c0,2.39 -6.94,4.32 -15.49,4.32 -8.55,0 -15.49,-1.93 -15.49,-4.32 0,-2.39 6.94,-4.33 15.49,-4.33 8.55,0 15.49,1.94 15.49,4.33z"/>
     <path class="fil1" d="M373.61 320.41c0,0.97 -3.11,1.76 -6.96,1.76 -3.84,0 -6.95,-0.79 -6.95,-1.76 0,-0.97 3.11,-1.76 6.95,-1.76 3.85,0 6.96,0.79 6.96,1.76z"/>
     <path class="fil1" d="M161.26 323.34c0,1.22 -3.42,2.21 -7.65,2.21 -4.23,0 -7.65,-0.99 -7.65,-2.21 0,-1.22 3.42,-2.21 7.65,-2.21 4.23,0 7.65,0.99 7.65,2.21z"/>
     <path class="fil1" d="M188.6 315.82c0,0.93 -2.15,1.67 -4.81,1.67 -2.67,0 -4.83,-0.74 -4.83,-1.67 0,-0.92 2.16,-1.67 4.83,-1.67 2.66,0 4.81,0.75 4.81,1.67z"/>
    </g>
   </g>
  </g>
  <g id="_1418722548656">
   <g>
    <path class="fil2" d="M346.75 105l-13.91 -8.09c1.06,0.62 2.1,0.71 3.12,0.12 9.8,-5.66 17.71,-37.8 18.12,-39.49l13.92 8.09c-0.41,1.69 -8.32,33.83 -18.12,39.49 -1.02,0.59 -2.07,0.49 -3.13,-0.12z"/>
   </g>
   <g>
    <path class="fil2" d="M290.98 124.88l-13.91 -8.09c1.06,0.62 2.06,0.76 2.92,0.26 5.5,-3.18 15.34,-38.9 24.76,-55.22 0.74,-1.28 1.49,-2.11 2.26,-2.55 1.02,-0.59 2.06,-0.5 3.12,0.12l13.92 8.09c-1.06,-0.62 -2.1,-0.71 -3.12,-0.12 -0.77,0.44 -1.52,1.27 -2.26,2.55 -9.42,16.32 -19.26,52.04 -24.76,55.22 -0.87,0.5 -1.86,0.36 -2.93,-0.26z"/>
   </g>
   <g>
    <path class="fil3" d="M252.16 87.1c10.8,-6.24 18.18,1.95 21.92,10.17 3.82,8.43 14.32,31.05 19.83,27.87 5.5,-3.18 15.34,-38.9 24.76,-55.22 0.74,-1.28 1.49,-2.11 2.26,-2.55 9.03,-5.21 19.91,42.97 28.95,37.75 9.8,-5.66 17.71,-37.8 18.12,-39.49l0.09 30.58 0.16 55.07 -313.59 181.05 -0.13 -48.29c1.59,-1.97 31.93,-39.39 42.41,-50.64 0.86,-0.91 1.86,-1.68 2.99,-2.34 9.82,-5.67 28.96,-2.39 38.38,-7.83 10.51,-6.07 28.64,-46.37 39.11,-64.51 6.43,-11.13 11.2,-18.02 17.07,-21.41 3.69,-2.13 7.8,-2.87 13.04,-2.42 2.76,0.23 5.23,-0.41 7.51,-1.73 8.94,-5.16 15.03,-20.62 24.66,-33.77 4.55,-6.23 8.71,-10.13 12.46,-12.29z"/>
   </g>
   <g>
    <polygon class="fil4" points="54.66,332.33 40.74,324.24 40.61,275.95 54.53,284.04 "/>
   </g>
   <path class="fil2" d="M251.46 78.44c-3.6,-2.09 -8.01,-2.43 -13.22,0.57 -3.75,2.17 -7.91,6.06 -12.46,12.29 -9.62,13.15 -15.72,28.61 -24.66,33.77 -2.28,1.32 -4.75,1.96 -7.51,1.73 -5.24,-0.45 -9.35,0.29 -13.04,2.42 -5.87,3.39 -10.64,10.28 -17.07,21.42 -10.46,18.13 -28.6,58.44 -39.1,64.5 -9.42,5.44 -28.56,2.16 -38.39,7.84 -1.13,0.65 -2.13,1.42 -2.98,2.33 -10.49,11.25 -40.83,48.67 -42.42,50.64l13.92 8.09c1.59,-1.97 31.93,-39.39 42.41,-50.64 0.86,-0.91 1.86,-1.68 2.99,-2.34 9.82,-5.67 28.96,-2.39 38.38,-7.83 10.51,-6.07 28.64,-46.37 39.11,-64.51 6.43,-11.13 11.2,-18.02 17.07,-21.41 3.69,-2.13 7.8,-2.87 13.04,-2.42 2.76,0.23 5.23,-0.41 7.51,-1.73 8.94,-5.16 15.03,-20.62 24.66,-33.77 4.55,-6.23 8.71,-10.13 12.46,-12.29 5.21,-3.01 9.62,-2.66 13.22,-0.57l-13.92 -8.09z"/>
   <g>
    <path class="fil5" d="M294.79 169.33l-13.91 -8.09c1.74,1.01 3.62,1.39 5.68,0.2 6.57,-3.79 24.34,-48.88 47.49,-62.24 3.99,-2.31 8.14,-3.67 12.43,-3.71 14.13,-0.14 35.4,9.45 36.51,9.96l13.92 8.09c-1.12,-0.51 -22.38,-10.1 -36.51,-9.96 -4.29,0.04 -8.44,1.4 -12.44,3.7 -23.14,13.37 -40.91,58.46 -47.48,62.25 -2.06,1.19 -3.94,0.81 -5.69,-0.2z"/>
   </g>
   <g>
    <path class="fil5" d="M261.02 204.99l-13.92 -8.09c0.89,0.51 1.72,0.82 2.5,0.89 0.44,0.04 0.89,-0.08 1.34,-0.34 5.99,-3.47 12.61,-31.52 17.49,-39.96 0.67,-1.17 1.34,-1.9 2.02,-2.29 1.06,-0.61 2.14,-0.4 3.25,0.25l13.92 8.09c-1.11,-0.65 -2.19,-0.86 -3.25,-0.25 -0.68,0.39 -1.35,1.12 -2.02,2.29 -4.88,8.44 -11.5,36.49 -17.49,39.95 -0.45,0.26 -0.9,0.39 -1.34,0.35 -0.78,-0.07 -1.61,-0.38 -2.5,-0.89z"/>
   </g>
   <path class="fil5" d="M210.45 156.95c-3.43,-2 -6.72,-2.54 -9.7,-0.82 -0.37,0.21 -0.73,0.46 -1.09,0.75 -11.19,8.86 -37.77,61.94 -49.55,68.74 -0.52,0.3 -1.01,0.51 -1.47,0.62 -8.34,2.03 -14.74,-0.83 -21.61,3.13 -2.07,1.2 -4.2,3.03 -6.43,5.8 -9.61,11.95 -19.86,49.77 -30.01,57.64 -0.69,0.54 -1.38,1.01 -2.08,1.41 -8.1,4.67 -15.89,0.94 -18.32,-0.47l13.92 8.09c2.43,1.41 10.21,5.14 18.32,0.47 0.69,-0.41 1.39,-0.87 2.08,-1.41 10.15,-7.87 20.4,-45.69 30.01,-57.64 2.23,-2.77 4.35,-4.6 6.43,-5.8 6.87,-3.96 13.27,-1.1 21.61,-3.13 0.46,-0.11 0.95,-0.32 1.47,-0.62 11.77,-6.8 38.36,-59.88 49.55,-68.75 0.36,-0.28 0.72,-0.53 1.09,-0.74 2.98,-1.72 6.27,-1.18 9.7,0.82l-13.92 -8.09z"/>
   <g>
    <path class="fil6" d="M214.67 164.22c15.09,-8.71 37.91,40.72 48.85,41.66 0.44,0.04 0.89,-0.09 1.34,-0.35 5.99,-3.46 12.61,-31.51 17.49,-39.95 0.67,-1.17 1.34,-1.9 2.02,-2.29 4.59,-2.65 9.4,10.12 16.11,6.24 6.57,-3.79 24.34,-48.88 47.48,-62.25 4,-2.3 8.15,-3.66 12.44,-3.7 14.13,-0.14 35.39,9.45 36.51,9.96l0.16 55.08 -313.58 181.05 -0.14 -48.3c0.48,0.32 9.56,6.43 19.08,0.94 0.69,-0.41 1.39,-0.87 2.08,-1.41 10.15,-7.87 20.4,-45.69 30.01,-57.64 2.23,-2.77 4.35,-4.6 6.43,-5.8 6.87,-3.96 13.27,-1.1 21.61,-3.13 0.46,-0.11 0.95,-0.32 1.47,-0.62 11.77,-6.8 38.36,-59.88 49.55,-68.75 0.36,-0.28 0.72,-0.53 1.09,-0.74z"/>
   </g>
   <g>
    <polygon class="fil5" points="83.49,349.67 69.57,341.58 69.43,293.28 83.35,301.37 "/>
   </g>
  </g>
 </g>
</svg>
