<?xml version="1.0" encoding="UTF-8"?>
<!DOCTYPE svg PUBLIC "-//W3C//DTD SVG 1.1//EN" "http://www.w3.org/Graphics/SVG/1.1/DTD/svg11.dtd">
<!-- Creator: CorelDRAW 2018 (64-Bit) -->
<svg xmlns="http://www.w3.org/2000/svg" xml:space="preserve" width="404px" height="391px" version="1.1" style="shape-rendering:geometricPrecision; text-rendering:geometricPrecision; image-rendering:optimizeQuality; fill-rule:evenodd; clip-rule:evenodd"
viewBox="0 0 60.8 58.93"
 xmlns:xlink="http://www.w3.org/1999/xlink">
 <defs>
  <style type="text/css">
   <![CDATA[
    .fil10 {fill:#EF4D57;fill-rule:nonzero}
    .fil5 {fill:#C7C8C9;fill-rule:nonzero}
    .fil9 {fill:#A03935;fill-rule:nonzero}
    .fil8 {fill:#BFC0C1;fill-rule:nonzero}
    .fil4 {fill:#96989B;fill-rule:nonzero}
    .fil14 {fill:#5C5B61;fill-rule:nonzero}
    .fil13 {fill:#2F2F30;fill-rule:nonzero}
    .fil7 {fill:#3C586F;fill-rule:nonzero}
    .fil6 {fill:#334557;fill-rule:nonzero}
    .fil3 {fill:#00BDFF;fill-rule:nonzero}
    .fil2 {fill:#0F92C2;fill-rule:nonzero}
    .fil11 {fill:#B5681C;fill-rule:nonzero}
    .fil0 {fill:#EAEAEA;fill-rule:nonzero}
    .fil1 {fill:#F1F1F1;fill-rule:nonzero}
    .fil12 {fill:#FB9025;fill-rule:nonzero}
   ]]>
  </style>
 </defs>
 <g id="Layer_x0020_1">
  <metadata id="CorelCorpID_0Corel-Layer"/>
  <g id="_1418434373248">
   <g>
    <path class="fil0" d="M28.84 52.44c4.24,0.88 12.84,2.67 18.59,-1.6 10.43,-7.76 9.69,-34.13 -3.46,-45.27 -1.14,-0.96 -7.07,-5.79 -15.2,-5.27 -14.09,0.92 -26.58,17.42 -24.12,30.65 1.43,7.74 7.71,12.88 10.3,15 1.06,0.87 6.09,4.87 13.89,6.49z"/>
    <g>
     <g>
      <path class="fil1" d="M13.69 48.14c0,0.86 -3.06,1.55 -6.84,1.55 -3.78,0 -6.85,-0.69 -6.85,-1.55 0,-0.86 3.07,-1.55 6.85,-1.55 3.78,0 6.84,0.69 6.84,1.55z"/>
      <path class="fil1" d="M50.34 49.66c-1.42,0 -2.78,0.04 -4.02,0.12 0.86,-0.25 1.36,-0.52 1.36,-0.82 0,-0.93 -5.01,-1.69 -11.19,-1.69 -6.17,0 -11.18,0.76 -11.18,1.69 0,0.94 5.01,1.7 11.18,1.7 1.59,0 3.09,-0.05 4.46,-0.14 -0.68,0.21 -1.06,0.44 -1.06,0.68 0,0.85 4.68,1.54 10.45,1.54 5.78,0 10.46,-0.69 10.46,-1.54 0,-0.85 -4.68,-1.54 -10.46,-1.54z"/>
      <path class="fil1" d="M20.19 50.53c-0.21,0 -0.42,0 -0.62,0 0.4,-0.18 0.62,-0.38 0.62,-0.59 0,-0.91 -4.24,-1.65 -9.46,-1.65 -5.23,0 -9.46,0.74 -9.46,1.65 0,0.91 4.2,1.65 9.39,1.66 -0.94,0.31 -1.48,0.68 -1.48,1.07 0,1.18 4.93,2.14 11.01,2.14 6.07,0 11,-0.96 11,-2.14 0,-1.18 -4.93,-2.14 -11,-2.14z"/>
      <path class="fil1" d="M60.53 48.11c0,0.35 -1.01,0.63 -2.26,0.63 -1.24,0 -2.26,-0.28 -2.26,-0.63 0,-0.34 1.02,-0.63 2.26,-0.63 1.25,0 2.26,0.29 2.26,0.63z"/>
      <path class="fil1" d="M54.51 47.01c0,0.14 -0.46,0.26 -1.02,0.26 -0.56,0 -1.01,-0.12 -1.01,-0.26 0,-0.14 0.45,-0.26 1.01,-0.26 0.56,0 1.02,0.12 1.02,0.26z"/>
      <path class="fil1" d="M23.53 47.44c0,0.18 -0.5,0.32 -1.12,0.32 -0.62,0 -1.12,-0.14 -1.12,-0.32 0,-0.18 0.5,-0.32 1.12,-0.32 0.62,0 1.12,0.14 1.12,0.32z"/>
      <path class="fil1" d="M27.52 46.34c0,0.14 -0.32,0.25 -0.71,0.25 -0.38,0 -0.7,-0.11 -0.7,-0.25 0,-0.13 0.32,-0.24 0.7,-0.24 0.39,0 0.71,0.11 0.71,0.24z"/>
     </g>
    </g>
   </g>
   <g>
    <path class="fil2" d="M33.3 21.14l0 0.84 -7.34 -2.95c-4.56,-1.82 -11.35,0.17 -12.56,3.68l-2.22 6.47 -1.73 0 0 5.24 0.01 0c-0.12,2.29 4.29,3.87 7.86,2.6l16.82 -5.99c2.94,-1.05 4.51,-2.87 4.54,-4.59l0 -5.3 -5.38 0z"/>
    <path class="fil3" d="M9.56 28.6c-0.88,2.54 3.93,4.47 7.76,3.11l16.82 -6c5.29,-1.88 6.15,-6.25 1.58,-8.08l-9.76 -3.91c-4.56,-1.83 -11.35,0.16 -12.56,3.68l-3.84 11.2z"/>
    <path class="fil4" d="M16.29 38.5l-0.64 0.01 -0.54 0.31c0,0 0.23,0.08 0.14,0.12 -0.44,0.2 -1.15,0.09 -1.93,-0.36 -1.29,-0.75 -2.38,-2.2 -2.38,-3.17 0,-0.37 0.15,-0.62 0.41,-0.76l-0.83 -0.29 -0.54 0.31c-0.04,0.14 0.14,0.83 0.14,1.01 0,1.36 1.18,2.65 2.82,3.6 0.68,0.39 1.5,0.71 2.19,0.5l0.06 0.14 0.56 -0.32 0 0c0.34,-0.21 0.54,-0.58 0.54,-1.1z"/>
    <path class="fil5" d="M15.75 38.81c0,1.36 -1.33,1.69 -2.97,0.75 -1.63,-0.95 -2.96,-2.82 -2.96,-4.18 0,-0.28 0.06,-0.52 0.16,-0.71l0.83 0.29c-0.26,0.14 -0.41,0.39 -0.41,0.76 0,0.97 1.09,2.42 2.38,3.17 1.12,0.64 2.09,0.59 2.33,-0.07l0.64 -0.01z"/>
    <path class="fil6" d="M10.42 35.25c-0.67,-0.27 -0.97,-0.11 -0.5,-0.5 0.22,-0.19 0.57,-0.31 0.93,-0.35l0 -1.12c-0.49,-0.21 -0.95,-0.34 -1.25,-0.11l-0.62 0.91 -0.52 0 0 1.17 0 0c0,0.49 0.4,0.97 1.15,1.27 1.22,0.49 2.9,0.31 3.74,-0.39 0.31,-0.25 0.46,-0.54 0.48,-0.82l0 -1.12c0.03,0.1 -0.27,0.43 -0.61,0.77 -0.34,0.34 -2.12,0.57 -2.8,0.29z"/>
    <path class="fil7" d="M12.62 33.99c0.06,0.21 -0.02,0.44 -0.25,0.63 -0.47,0.39 -1.4,0.49 -2.08,0.22 -0.68,-0.28 -0.84,-0.81 -0.37,-1.21 0.22,-0.19 0.57,-0.31 0.93,-0.35 -0.28,-0.17 -0.54,-0.37 -0.74,-0.58 -0.46,0.11 -0.87,0.29 -1.18,0.54 -0.84,0.7 -0.54,1.67 0.68,2.16 1.22,0.49 2.9,0.32 3.74,-0.39 0.31,-0.25 0.46,-0.54 0.48,-0.82 -0.42,-0.04 -0.83,-0.11 -1.21,-0.2z"/>
    <path class="fil2" d="M26.23 23.91c2.72,1.09 6.46,0.7 8.35,-0.87 1.89,-1.58 1.21,-3.73 -1.51,-4.83 -2.72,-1.09 -6.46,-0.7 -8.35,0.88 -1.89,1.57 -1.22,3.73 1.51,4.82z"/>
    <path class="fil4" d="M34.99 19.71l-0.57 0c-0.34,-0.38 -0.83,-0.71 -1.48,-0.97 -2.16,-0.86 -5.12,-0.55 -6.62,0.69 -0.11,0.09 -0.2,0.18 -0.29,0.28l-0.56 0 0 1.29 0 0c0.01,0.87 0.72,1.72 2.05,2.26 2.16,0.86 5.12,0.55 6.62,-0.69 0.57,-0.48 0.85,-1.03 0.84,-1.57l0.01 0 0 -1.29z"/>
    <path class="fil8" d="M27.52 21.96c2.16,0.87 5.12,0.56 6.62,-0.69 1.5,-1.24 0.96,-2.95 -1.2,-3.82 -2.16,-0.86 -5.12,-0.55 -6.62,0.69 -1.5,1.25 -0.96,2.96 1.2,3.82z"/>
    <path class="fil6" d="M14.11 27.47c0.68,0.27 1.61,0.18 2.08,-0.22 0.48,-0.39 0.31,-0.93 -0.37,-1.2 -0.68,-0.27 -1.62,-0.17 -2.09,0.22 -0.47,0.39 -0.3,0.93 0.38,1.2z"/>
    <path class="fil9" d="M16.15 26.38l-0.14 0c-0.09,-0.09 -0.21,-0.18 -0.37,-0.24 -0.54,-0.22 -1.28,-0.14 -1.65,0.17l-0.07 0.07 -0.14 0 0 0.32 0 0c0,0.22 0.18,0.43 0.51,0.56 0.54,0.22 1.27,0.14 1.65,-0.17 0.14,-0.12 0.21,-0.25 0.21,-0.39l0 0 0 -0.32z"/>
    <path class="fil10" d="M14.29 26.94c0.54,0.22 1.27,0.14 1.65,-0.17 0.37,-0.31 0.24,-0.74 -0.3,-0.95 -0.54,-0.22 -1.28,-0.14 -1.65,0.17 -0.37,0.31 -0.24,0.74 0.3,0.95z"/>
    <path class="fil11" d="M31.99 41.53l0 -2.12 -1.94 0 -4.22 -3.61c-0.73,-0.63 -2.22,-0.79 -3.31,-0.37l-5.29 2.06 -0.55 -1.09 -4.27 1.63 0 2.07c0,0.27 0.13,0.54 0.41,0.77l5.75 4.93c0.74,0.63 2.22,0.8 3.32,0.37l9.06 -3.53c0.65,-0.25 1.02,-0.67 1.04,-1.09l0 0 0 -0.02z"/>
    <polygon class="fil4" points="41.09,53.75 40.37,54.03 39.2,53.02 39.91,52.74 39.91,51.63 38.01,52 37.42,51.5 38.13,51.22 38.13,50.1 36.32,50.56 35.72,50.05 36.43,49.77 36.43,48.65 35.48,48.95 29.81,44.1 32.18,43.17 32.18,42.05 21.88,44.59 21.88,45.71 23.06,46.72 24.99,45.97 39.43,58.34 42.35,58.93 44.25,56.46 44.25,55.34 "/>
    <path class="fil12" d="M14.67 37.28c0.68,-0.26 1.6,-0.16 2.06,0.23 0.46,0.4 0.28,0.93 -0.4,1.2 -0.68,0.26 -1.61,0.16 -2.06,-0.24 -0.46,-0.39 -0.28,-0.92 0.4,-1.19zm-1.85 1.49l5.75 4.93c0.74,0.63 2.22,0.79 3.32,0.37l9.06 -3.53c1.09,-0.42 1.38,-1.28 0.64,-1.91l-5.76 -4.93c-0.73,-0.63 -2.22,-0.8 -3.31,-0.37l-9.06 3.53c-1.09,0.42 -1.38,1.28 -0.64,1.91z"/>
    <path class="fil13" d="M28.07 40.11c-0.03,-0.09 -0.09,-0.17 -0.18,-0.25l-2.05 -1.75c-0.36,-0.31 -1.09,-0.39 -1.62,-0.18l-4.44 1.72c-0.26,0.1 -0.43,0.26 -0.49,0.43 -0.09,-0.26 0.09,-0.53 0.49,-0.69l4.44 -1.73c0.53,-0.21 1.26,-0.12 1.62,0.19l2.05 1.75c0.18,0.15 0.24,0.34 0.18,0.51z"/>
    <path class="fil14" d="M28.07 40.11c-0.06,0.17 -0.23,0.32 -0.49,0.43l-4.44 1.72c-0.54,0.21 -1.26,0.13 -1.62,-0.18l-2.05 -1.75c-0.09,-0.08 -0.15,-0.16 -0.18,-0.25 0.06,-0.17 0.23,-0.33 0.49,-0.43l4.44 -1.72c0.53,-0.21 1.26,-0.13 1.62,0.18l2.05 1.75c0.09,0.08 0.15,0.16 0.18,0.25z"/>
    <polygon class="fil8" points="41.09,52.63 40.37,52.91 39.2,51.9 39.91,51.63 39.31,51.11 38.59,51.38 37.42,50.38 38.13,50.1 37.61,49.66 36.9,49.93 35.72,48.93 36.43,48.65 29.81,42.98 32.18,42.05 30.99,41.04 21.88,44.59 23.06,45.6 24.99,44.85 39.43,57.22 42.35,57.81 44.25,55.34 "/>
    <polygon class="fil4" points="41.01,56.29 26.82,44.14 26.18,44.39 40.38,56.54 "/>
    <path class="fil4" d="M13.32 34.32c-0.98,-0.56 -1.85,-0.67 -2.39,-0.37l0 0 -0.57 0.33 0.29 0.27 0.18 -0.08 0.52 0.18c0.43,-0.22 0.93,0.01 1.74,0.48 0.85,0.7 1.86,1.93 2.23,3.16 0.04,0.13 0.27,0.55 0.46,0.55 0.33,0 0.51,-0.12 0.51,-0.12l0.03 -0.19c0,-1.36 -1.36,-3.26 -3,-4.21z"/>
    <path class="fil5" d="M15.11 38.82c0.04,-0.1 0.06,-0.22 0.06,-0.35 0,-0.97 -1.09,-2.42 -2.39,-3.17 -0.81,-0.46 -1.54,-0.56 -1.97,-0.34l-0.83 -0.29c0.41,-0.73 1.51,-0.78 2.8,-0.04 1.64,0.95 3,2.85 3,4.21 0,0 -0.04,0.02 -0.32,0.01 -0.27,0 -0.35,-0.03 -0.35,-0.03z"/>
   </g>
   <g>
    <path class="fil12" d="M45.55 15.48c-3.11,1.8 -5.62,6.16 -5.62,9.75 0,3.59 2.51,5.04 5.62,3.25 3.11,-1.8 5.63,-6.16 5.63,-9.75 0,-3.58 -2.52,-5.04 -5.63,-3.25zm-0.48 10.21l0 0c-0.47,0.26 -0.91,0.41 -1.28,0.41 -1.09,0 -1.21,-1.29 -1.21,-1.85 0,-2.16 1.58,-4.9 3.46,-5.98 0.46,-0.26 0.9,-0.41 1.27,-0.41 1.09,0 1.21,1.29 1.21,1.85 0,2.16 -1.58,4.9 -3.45,5.98z"/>
   </g>
   <g>
    <path class="fil11" d="M47.46 17.88c-0.05,-0.01 -0.1,-0.02 -0.15,-0.02 -0.24,0 -0.51,0.07 -0.8,0.18 0.03,0.2 0.04,0.39 0.04,0.53 0,2.16 -1.58,4.9 -3.45,5.98 -0.17,0.09 -0.33,0.17 -0.48,0.23 0.04,0.31 0.14,0.65 0.33,0.91 0.18,0.24 0.45,0.41 0.84,0.41 0.37,0 0.81,-0.15 1.28,-0.41 1.87,-1.08 3.45,-3.82 3.45,-5.98 0,-0.53 -0.11,-1.72 -1.06,-1.83z"/>
   </g>
   <g>
    <path class="fil11" d="M49.52 15.09l-2.79 -1.61c0,0 0,-0.01 0,-0.01 -1.02,-0.59 -2.43,-0.51 -3.99,0.39 -3.11,1.79 -5.63,6.16 -5.63,9.74 0,1.78 0.62,3.03 1.62,3.62 0,0.01 0.01,0.01 0.02,0.02l0.02 0.01 2.75 1.59c0,0 0.01,0 0.01,0 -0.46,-0.27 -0.83,-0.69 -1.1,-1.23 -0.2,-0.4 -0.35,-0.86 -0.43,-1.39 -0.04,-0.31 -0.07,-0.64 -0.07,-0.99 0,-3.59 2.51,-7.95 5.62,-9.75 0.31,-0.17 0.6,-0.31 0.9,-0.42 0.49,-0.2 0.97,-0.31 1.41,-0.33 0.62,-0.04 1.19,0.08 1.66,0.36l0 0z"/>
   </g>
   <g>
    <g>
     <g>
      <polygon class="fil11" points="45,1.52 42.37,0 38.42,2.28 29.25,34.86 31.87,36.38 35.77,34.13 "/>
     </g>
    </g>
   </g>
   <g>
    <g>
     <polygon class="fil12" points="35.77,34.13 31.87,36.38 41.06,3.79 45,1.52 "/>
    </g>
   </g>
   <g>
    <g>
     <polygon class="fil11" points="31.87,36.38 41.06,3.79 38.42,2.28 29.25,34.86 "/>
    </g>
   </g>
   <g>
    <g>
     <path class="fil12" d="M30.27 10.23c-3.1,1.8 -5.62,6.16 -5.62,9.75 0,3.58 2.52,5.04 5.62,3.25 3.11,-1.8 5.63,-6.16 5.63,-9.75 0,-3.59 -2.52,-5.04 -5.63,-3.25zm-0.48 10.21l0 0c-0.46,0.26 -0.91,0.4 -1.28,0.4 -1.09,0 -1.21,-1.28 -1.21,-1.84 0,-2.16 1.59,-4.9 3.46,-5.98 0.46,-0.26 0.9,-0.41 1.27,-0.41 1.09,0 1.21,1.29 1.21,1.85 0,2.16 -1.58,4.9 -3.45,5.98z"/>
    </g>
   </g>
   <g>
    <g>
     <g>
      <path class="fil11" d="M32.19 12.63c-0.05,-0.01 -0.1,-0.02 -0.16,-0.02 -0.24,0 -0.51,0.07 -0.79,0.18 0.02,0.2 0.03,0.39 0.03,0.53 0,2.16 -1.58,4.9 -3.45,5.98 -0.16,0.09 -0.32,0.17 -0.48,0.23 0.04,0.31 0.14,0.65 0.34,0.91 0.18,0.24 0.44,0.4 0.83,0.4 0.37,0 0.82,-0.14 1.28,-0.4 1.87,-1.08 3.45,-3.82 3.45,-5.98 0,-0.53 -0.11,-1.72 -1.05,-1.83z"/>
     </g>
    </g>
   </g>
   <g>
    <g>
     <path class="fil11" d="M34.24 9.84l-2.79 -1.62c0,0 0,0 0,0 -1.02,-0.59 -2.43,-0.51 -3.99,0.39 -3.11,1.79 -5.63,6.16 -5.63,9.74 0,1.78 0.62,3.02 1.62,3.62 0.01,0.01 0.01,0.01 0.02,0.02l0.02 0.01 2.75 1.59c0,0 0.01,0 0.02,0 -0.46,-0.27 -0.84,-0.69 -1.11,-1.23 -0.2,-0.4 -0.35,-0.87 -0.42,-1.39 -0.05,-0.31 -0.08,-0.64 -0.08,-0.99 0,-3.59 2.52,-7.95 5.62,-9.75 0.31,-0.17 0.61,-0.31 0.9,-0.42 0.49,-0.2 0.97,-0.31 1.41,-0.33 0.62,-0.04 1.19,0.08 1.66,0.36l0 0z"/>
    </g>
   </g>
  </g>
 </g>
</svg>
