<?xml version="1.0" encoding="UTF-8"?>
<!DOCTYPE svg PUBLIC "-//W3C//DTD SVG 1.1//EN" "http://www.w3.org/Graphics/SVG/1.1/DTD/svg11.dtd">
<!-- Creator: CorelDRAW 2018 (64-Bit) -->
<svg xmlns="http://www.w3.org/2000/svg" xml:space="preserve" width="433px" height="388px" version="1.1" style="shape-rendering:geometricPrecision; text-rendering:geometricPrecision; image-rendering:optimizeQuality; fill-rule:evenodd; clip-rule:evenodd"
viewBox="0 0 26.16 23.47"
 xmlns:xlink="http://www.w3.org/1999/xlink">
 <defs>
  <style type="text/css">
   <![CDATA[
    .fil5 {fill:#00BDFF;fill-rule:nonzero}
    .fil4 {fill:#0F92C2;fill-rule:nonzero}
    .fil2 {fill:#B5681C;fill-rule:nonzero}
    .fil0 {fill:#EAEAEA;fill-rule:nonzero}
    .fil1 {fill:#F1F1F1;fill-rule:nonzero}
    .fil3 {fill:#FB9025;fill-rule:nonzero}
   ]]>
  </style>
 </defs>
 <g id="Layer_x0020_1">
  <metadata id="CorelCorpID_0Corel-Layer"/>
  <g id="_1418473806304">
   <path class="fil0" d="M12.41 22.45c1.83,0.38 5.52,1.15 8,-0.69 4.49,-3.34 4.17,-14.68 -1.49,-19.48 -0.49,-0.41 -3.04,-2.49 -6.54,-2.26 -6.06,0.39 -11.44,7.49 -10.38,13.18 0.62,3.33 3.32,5.55 4.43,6.46 0.46,0.37 2.62,2.09 5.98,2.79z"/>
   <g>
    <g>
     <path class="fil1" d="M5.89 20.6c0,0.37 -1.32,0.67 -2.94,0.67 -1.63,0 -2.95,-0.3 -2.95,-0.67 0,-0.37 1.32,-0.67 2.95,-0.67 1.62,0 2.94,0.3 2.94,0.67z"/>
     <path class="fil1" d="M21.66 21.25c-0.61,0 -1.2,0.02 -1.73,0.05 0.37,-0.1 0.58,-0.22 0.58,-0.34 0,-0.41 -2.15,-0.73 -4.81,-0.73 -2.65,0 -4.81,0.32 -4.81,0.73 0,0.4 2.16,0.73 4.81,0.73 0.68,0 1.33,-0.03 1.92,-0.06 -0.29,0.08 -0.45,0.18 -0.45,0.29 0,0.36 2.01,0.66 4.49,0.66 2.49,0 4.5,-0.3 4.5,-0.66 0,-0.37 -2.01,-0.67 -4.5,-0.67z"/>
     <path class="fil1" d="M8.69 21.63c-0.09,0 -0.18,0 -0.27,0 0.17,-0.08 0.27,-0.16 0.27,-0.25 0,-0.4 -1.83,-0.71 -4.07,-0.71 -2.25,0 -4.07,0.31 -4.07,0.71 0,0.39 1.8,0.71 4.04,0.71 -0.41,0.13 -0.64,0.29 -0.64,0.46 0,0.51 2.12,0.92 4.74,0.92 2.61,0 4.73,-0.41 4.73,-0.92 0,-0.51 -2.12,-0.92 -4.73,-0.92z"/>
     <path class="fil1" d="M26.05 20.59c0,0.15 -0.44,0.27 -0.97,0.27 -0.54,0 -0.98,-0.12 -0.98,-0.27 0,-0.15 0.44,-0.27 0.98,-0.27 0.53,0 0.97,0.12 0.97,0.27z"/>
     <path class="fil1" d="M23.46 20.12c0,0.06 -0.2,0.11 -0.44,0.11 -0.24,0 -0.44,-0.05 -0.44,-0.11 0,-0.07 0.2,-0.11 0.44,-0.11 0.24,0 0.44,0.04 0.44,0.11z"/>
     <path class="fil1" d="M10.12 20.3c0,0.08 -0.21,0.14 -0.48,0.14 -0.26,0 -0.48,-0.06 -0.48,-0.14 0,-0.08 0.22,-0.14 0.48,-0.14 0.27,0 0.48,0.06 0.48,0.14z"/>
     <path class="fil1" d="M11.84 19.83c0,0.06 -0.13,0.1 -0.3,0.1 -0.17,0 -0.3,-0.04 -0.3,-0.1 0,-0.06 0.13,-0.11 0.3,-0.11 0.17,0 0.3,0.05 0.3,0.11z"/>
    </g>
   </g>
  </g>
  <g id="_1418756481120">
   <g>
    <g>
     <path class="fil2" d="M20.5 15.97l-0.01 2.54c0,1.1 -0.73,2.2 -2.17,3.04 -2.92,1.69 -7.66,1.69 -10.59,0 -1.48,-0.85 -2.21,-1.97 -2.21,-3.09l0.01 -2.54c0,1.12 0.74,2.24 2.21,3.09 2.93,1.7 7.68,1.69 10.59,0 1.45,-0.84 2.17,-1.94 2.17,-3.04z"/>
    </g>
   </g>
   <g>
    <path class="fil3" d="M18.29 12.88c2.94,1.69 2.95,4.44 0.04,6.13 -2.91,1.69 -7.66,1.7 -10.59,0 -2.93,-1.69 -2.95,-4.44 -0.03,-6.13 2.91,-1.69 7.65,-1.69 10.58,0z"/>
   </g>
   <g>
    <g>
     <path class="fil4" d="M20.5 11.67l-0.01 2.54c0,1.1 -0.73,2.21 -2.17,3.05 -2.92,1.69 -7.66,1.69 -10.59,0 -1.48,-0.85 -2.21,-1.97 -2.21,-3.09l0.01 -2.54c0,1.12 0.74,2.24 2.21,3.09 2.93,1.69 7.68,1.69 10.59,0 1.45,-0.84 2.17,-1.94 2.17,-3.05z"/>
    </g>
   </g>
   <g>
    <path class="fil5" d="M18.29 8.59c2.94,1.69 2.95,4.43 0.04,6.13 -2.91,1.69 -7.66,1.69 -10.59,0 -2.93,-1.69 -2.95,-4.44 -0.03,-6.13 2.91,-1.7 7.65,-1.7 10.58,0z"/>
   </g>
   <g>
    <g>
     <path class="fil2" d="M20.5 7.01l-0.01 2.53c0,1.11 -0.73,2.21 -2.17,3.05 -2.92,1.69 -7.66,1.69 -10.59,0 -1.48,-0.85 -2.21,-1.97 -2.21,-3.09l0.01 -2.54c0,1.12 0.74,2.24 2.21,3.09 2.93,1.69 7.68,1.69 10.59,0 1.45,-0.84 2.17,-1.94 2.17,-3.04z"/>
    </g>
   </g>
   <g>
    <path class="fil3" d="M18.29 3.92c2.94,1.69 2.95,4.44 0.04,6.13 -2.91,1.69 -7.66,1.69 -10.59,0 -2.93,-1.69 -2.95,-4.44 -0.03,-6.13 2.91,-1.69 7.65,-1.69 10.58,0z"/>
   </g>
  </g>
 </g>
</svg>
