<?xml version="1.0" encoding="UTF-8"?>
<!DOCTYPE svg PUBLIC "-//W3C//DTD SVG 1.1//EN" "http://www.w3.org/Graphics/SVG/1.1/DTD/svg11.dtd">
<!-- Creator: CorelDRAW 2018 (64-Bit) -->
<svg xmlns="http://www.w3.org/2000/svg" xml:space="preserve" width="404px" height="362px" version="1.1" style="shape-rendering:geometricPrecision; text-rendering:geometricPrecision; image-rendering:optimizeQuality; fill-rule:evenodd; clip-rule:evenodd"
viewBox="0 0 79.44 71.28"
 xmlns:xlink="http://www.w3.org/1999/xlink">
 <defs>
  <style type="text/css">
   <![CDATA[
    .fil5 {fill:#00BDFF;fill-rule:nonzero}
    .fil7 {fill:#00CDFF;fill-rule:nonzero}
    .fil3 {fill:#0F92C2;fill-rule:nonzero}
    .fil11 {fill:#494949;fill-rule:nonzero}
    .fil6 {fill:#498A7B;fill-rule:nonzero}
    .fil10 {fill:#A6A6A6;fill-rule:nonzero}
    .fil2 {fill:#B5681C;fill-rule:nonzero}
    .fil0 {fill:#EAEAEA;fill-rule:nonzero}
    .fil9 {fill:#F08519;fill-rule:nonzero}
    .fil1 {fill:#F1F1F1;fill-rule:nonzero}
    .fil4 {fill:#FB952C;fill-rule:nonzero}
    .fil8 {fill:white;fill-rule:nonzero}
   ]]>
  </style>
 </defs>
 <g id="Layer_x0020_1">
  <metadata id="CorelCorpID_0Corel-Layer"/>
  <g id="_1418822978672">
   <path class="fil0" d="M37.69 68.18c5.54,1.15 16.77,3.48 24.28,-2.1 13.63,-10.13 12.67,-44.59 -4.52,-59.15 -1.48,-1.25 -9.24,-7.57 -19.85,-6.88 -18.41,1.2 -34.73,22.76 -31.53,40.04 1.88,10.12 10.08,16.84 13.46,19.61 1.39,1.14 7.96,6.36 18.16,8.48z"/>
   <g>
    <g>
     <path class="fil1" d="M17.89 62.56c0,1.12 -4,2.03 -8.94,2.03 -4.95,0 -8.95,-0.91 -8.95,-2.03 0,-1.12 4,-2.03 8.95,-2.03 4.94,0 8.94,0.91 8.94,2.03z"/>
     <path class="fil1" d="M65.78 64.54c-1.86,0 -3.64,0.06 -5.26,0.15 1.13,-0.31 1.78,-0.67 1.78,-1.05 0,-1.23 -6.55,-2.22 -14.62,-2.22 -8.07,0 -14.61,0.99 -14.61,2.22 0,1.22 6.54,2.21 14.61,2.21 2.07,0 4.04,-0.06 5.83,-0.18 -0.89,0.27 -1.39,0.57 -1.39,0.88 0,1.12 6.12,2.02 13.66,2.02 7.55,0 13.66,-0.9 13.66,-2.02 0,-1.11 -6.11,-2.01 -13.66,-2.01z"/>
     <path class="fil1" d="M26.38 65.68c-0.27,0 -0.54,0 -0.81,0 0.52,-0.24 0.81,-0.5 0.81,-0.77 0,-1.19 -5.54,-2.16 -12.36,-2.16 -6.83,0 -12.36,0.97 -12.36,2.16 0,1.19 5.49,2.15 12.28,2.16 -1.24,0.42 -1.94,0.9 -1.94,1.41 0,1.54 6.43,2.8 14.38,2.8 7.94,0 14.38,-1.26 14.38,-2.8 0,-1.55 -6.44,-2.8 -14.38,-2.8z"/>
     <path class="fil1" d="M79.1 62.52c0,0.46 -1.32,0.83 -2.96,0.83 -1.63,0 -2.95,-0.37 -2.95,-0.83 0,-0.45 1.32,-0.82 2.95,-0.82 1.64,0 2.96,0.37 2.96,0.82z"/>
     <path class="fil1" d="M71.22 61.08c0,0.19 -0.59,0.34 -1.32,0.34 -0.73,0 -1.33,-0.15 -1.33,-0.34 0,-0.18 0.6,-0.33 1.33,-0.33 0.73,0 1.32,0.15 1.32,0.33z"/>
     <path class="fil1" d="M30.74 61.64c0,0.23 -0.65,0.42 -1.46,0.42 -0.8,0 -1.45,-0.19 -1.45,-0.42 0,-0.23 0.65,-0.42 1.45,-0.42 0.81,0 1.46,0.19 1.46,0.42z"/>
     <path class="fil1" d="M35.96 60.21c0,0.17 -0.42,0.32 -0.92,0.32 -0.51,0 -0.92,-0.15 -0.92,-0.32 0,-0.18 0.41,-0.32 0.92,-0.32 0.5,0 0.92,0.14 0.92,0.32z"/>
    </g>
   </g>
  </g>
  <g id="_1419448153088">
   <path class="fil2" d="M75.2 41.95c0,-3.81 -2.51,-7.61 -7.54,-10.51 -10.06,-5.81 -26.36,-5.81 -36.42,0 -5.03,2.9 -7.54,6.7 -7.54,10.51l0 12.54c0,3.81 2.51,7.61 7.54,10.52 10.06,5.8 26.36,5.8 36.42,0 5.03,-2.91 7.54,-6.71 7.54,-10.52l0 -12.54z"/>
   <path class="fil3" d="M60.52 67.9c2.58,-0.71 5.01,-1.66 7.14,-2.89 5.03,-2.91 7.54,-6.71 7.54,-10.52l0 -12.54c0,-2.1 -0.77,-4.2 -2.3,-6.15l-12.38 19.56 0 12.54z"/>
   <path class="fil4" d="M67.66 52.46c-10.06,5.81 -26.36,5.81 -36.42,0 -10.06,-5.8 -10.06,-15.22 0,-21.02 10.06,-5.81 26.36,-5.81 36.42,0 10.06,5.8 10.06,15.22 0,21.02z"/>
   <path class="fil5" d="M67.66 31.43c-1.09,-0.62 -2.26,-1.17 -3.47,-1.66 -10.04,-4.06 -23.98,-3.51 -32.95,1.66 -2.02,1.17 -3.63,2.49 -4.84,3.89l23.05 6.63 11.07 13.41c2.58,-0.71 5.01,-1.67 7.14,-2.9 10.06,-5.8 10.06,-15.22 0,-21.03z"/>
   <path class="fil6" d="M24.76 4.92l-0.83 0.48c-0.19,0.11 -0.34,0.02 -0.34,-0.2l0 -1.96c0,-0.22 0.15,-0.48 0.34,-0.59l0.83 -0.48c0.19,-0.11 0.34,-0.02 0.34,0.19l0 1.97c0,0.22 -0.15,0.48 -0.34,0.59z"/>
   <path class="fil7" d="M34.09 5.42l0.46 -0.33 -1.95 -1.14 0 0c-2.05,-1.37 -4.99,-1.28 -8.25,0.6 -6.22,3.59 -11.25,12.32 -11.25,19.49 0,3.59 1.25,6.11 3.28,7.28l2.53 1.48 -0.04 -0.74c1.62,0.11 3.49,-0.37 5.48,-1.52 6.21,-3.59 11.25,-12.32 11.25,-19.49 0,-2.37 -0.55,-4.27 -1.51,-5.63z"/>
   <polygon class="fil7" points="23.59,5.01 26.13,6.5 26.13,4.99 23.59,3.24 "/>
   <path class="fil5" d="M27.3 6.4l-0.83 0.48c-0.19,0.11 -0.34,0.02 -0.34,-0.19l0 -1.97c0,-0.22 0.15,-0.48 0.34,-0.59l0.83 -0.48c0.18,-0.11 0.34,-0.02 0.34,0.19l0 1.97c0,0.22 -0.16,0.48 -0.34,0.59z"/>
   <path class="fil7" d="M26.59 0.08c-0.08,-0.05 -0.2,-0.04 -0.33,0.04l-3.92 2.26c-0.26,0.15 -0.47,0.51 -0.47,0.81l0 0.77c0,0.15 0.05,0.25 0.14,0.3l2.56 1.5 4.54 -4.2 -2.52 -1.48z"/>
   <path class="fil5" d="M28.79 3.45l-3.92 2.26c-0.26,0.15 -0.47,0.03 -0.47,-0.27l0 -0.77c0,-0.3 0.21,-0.66 0.47,-0.81l3.92 -2.26c0.26,-0.15 0.47,-0.03 0.47,0.27l0 0.77c0,0.29 -0.21,0.66 -0.47,0.81z"/>
   <path class="fil5" d="M38.13 12.53c0,7.18 -5.03,15.9 -11.25,19.49 -6.21,3.59 -11.25,0.68 -11.25,-6.5 0,-7.17 5.04,-15.9 11.25,-19.49 6.22,-3.59 11.25,-0.68 11.25,6.5z"/>
   <path class="fil7" d="M36.33 13.57c0,6.03 -4.23,13.36 -9.45,16.37 -2.85,1.64 -5.4,1.66 -7.14,0.36 1.69,0.8 3.93,0.6 6.39,-0.82 5.21,-3.02 9.45,-10.34 9.45,-16.37 0,-2.74 -0.88,-4.73 -2.32,-5.81 1.89,0.9 3.07,3.08 3.07,6.27z"/>
   <path class="fil8" d="M35.58 13.11c0,6.03 -4.24,13.35 -9.45,16.37 -2.46,1.42 -4.7,1.62 -6.39,0.82 -1.44,-1.08 -2.31,-3.08 -2.31,-5.82 0,-6.02 4.23,-13.35 9.45,-16.37 2.46,-1.42 4.7,-1.62 6.38,-0.81 1.44,1.08 2.32,3.07 2.32,5.81z"/>
   <path class="fil9" d="M29.88 17.55l0 -1.6c0,-0.43 0.02,-0.89 0.04,-1.37l-0.03 0.02c-0.21,0.58 -0.37,1.1 -0.58,1.68l-0.84 2.06 0 0.02 1.41 -0.81zm0 2.99l0 -1.72 -2.78 1.6 0 -1.1 2.37 -5.77 1.79 -1.04 0 4.24 0.76 -0.44 0 1.28 -0.76 0.43 0 1.72 -1.38 0.8z"/>
   <path class="fil9" d="M24.02 22.53l0 -0.02 0.58 -0.89c0.9,-1.46 1.67,-2.86 1.67,-4.08 0,-0.37 -0.07,-0.67 -0.19,-0.9l0.3 0 -0.64 -0.37 -0.01 0c-0.37,-0.21 -0.93,-0.15 -1.66,0.27 -0.85,0.49 -1.58,1.25 -2.05,1.93l0.41 0.98c0.33,-0.48 0.8,-1.07 1.34,-1.38 0.72,-0.42 1.03,-0.13 1.03,0.47 -0.02,0.85 -0.68,2.05 -2.05,4.25l-0.81 1.31 0 1.03 4.44 -2.57 0 -1.39 -2.36 1.36z"/>
   <polygon class="fil9" points="24.66,22.9 24.96,21.99 26.38,21.17 27.02,21.54 "/>
   <path class="fil2" d="M22.58 25.5l0 -1.03 0.81 -1.31c1.37,-2.2 2.03,-3.4 2.05,-4.26 0,-0.59 -0.31,-0.87 -1.03,-0.46 -0.54,0.31 -1.01,0.9 -1.34,1.38l-0.41 -0.98c0.47,-0.68 1.2,-1.44 2.05,-1.93 1.42,-0.81 2.2,-0.31 2.2,1.01 0,1.2 -0.77,2.61 -1.67,4.07l-0.58 0.89 0 0.02 2.36 -1.36 0 1.39 -4.44 2.57z"/>
   <path class="fil2" d="M30.52 17.92l0 -1.6c0,-0.44 0.02,-0.89 0.05,-1.38l-0.04 0.03c-0.2,0.58 -0.37,1.1 -0.58,1.68l-0.84 2.06 0 0.02 1.41 -0.81zm0 2.99l0 -1.72 -2.78 1.6 0 -1.1 2.37 -5.77 1.79 -1.04 0 4.24 0.76 -0.43 0 1.26 -0.76 0.44 0 1.72 -1.38 0.8z"/>
   <polygon class="fil9" points="22.78,25.62 22.08,25.21 22.08,24.1 22.78,24.5 "/>
   <polygon class="fil9" points="27.74,20.79 27.1,20.42 27.1,19.32 27.74,19.69 "/>
   <polygon class="fil9" points="30.52,20.91 29.88,20.54 29.88,19.56 30.52,19.19 "/>
   <polygon class="fil9" points="31.9,17.12 31.9,16.38 32.02,16.31 32.66,16.69 "/>
   <polygon class="fil9" points="23.07,19.82 22.43,19.45 22.02,18.47 22.66,18.84 "/>
   <polygon class="fil9" points="30.11,13.92 29.47,13.55 31.26,12.51 31.9,12.88 "/>
   <polygon class="fil10" points="27.55,8.96 26.56,11.78 26.13,11.54 26.13,9.29 27.12,8.72 "/>
   <polygon class="fil10" points="27.1,29.98 26.63,29.71 26.63,27.27 27.71,26.65 28.17,26.92 "/>
   <polygon class="fil10" points="33.43,15.66 33.43,14.52 35.38,13.39 35.8,13.64 33.86,15.91 "/>
   <polygon class="fil10" points="17.97,24.6 17.97,23.46 19.91,22.34 20.34,22.58 18.39,24.85 "/>
   <polygon class="fil10" points="32.14,10.06 31.7,9.8 32.56,8.31 33,8.57 "/>
   <polygon class="fil10" points="21.31,16.41 21.75,15.65 20.88,15.15 20.45,15.91 "/>
   <polygon class="fil10" points="32.14,21.72 31.7,22.48 32.56,22.98 33,22.21 "/>
   <polygon class="fil10" points="21.23,28.4 21.7,28.68 20.77,30.3 20.29,30.02 "/>
   <polygon class="fil11" points="27.55,11.21 26.56,11.78 26.56,9.54 27.55,8.96 "/>
   <polygon class="fil11" points="28.17,29.36 27.1,29.98 27.1,27.54 28.17,26.92 "/>
   <polygon class="fil11" points="33.86,15.91 33.86,14.76 35.8,13.64 35.8,14.78 "/>
   <polygon class="fil11" points="18.39,24.85 18.39,23.71 20.34,22.58 20.34,23.73 "/>
   <polygon class="fil11" points="32.56,10.3 32.12,10.05 32.99,8.56 33.42,8.81 "/>
   <polygon class="fil11" points="21.73,16.65 22.17,15.9 21.31,15.4 20.87,16.16 "/>
   <polygon class="fil11" points="32.56,21.96 32.12,22.72 32.99,23.22 33.42,22.46 "/>
   <polygon class="fil11" points="21.69,28.67 22.16,28.94 21.23,30.56 20.75,30.29 "/>
  </g>
 </g>
</svg>
